<?xml version="1.0" encoding="utf-8"?>
<!-- Generator: Adobe Illustrator 16.0.0, SVG Export Plug-In . SVG Version: 6.00 Build 0)  -->
<!DOCTYPE svg PUBLIC "-//W3C//DTD SVG 1.1//EN" "http://www.w3.org/Graphics/SVG/1.1/DTD/svg11.dtd">
<svg version="1.1" xmlns="http://www.w3.org/2000/svg" xmlns:xlink="http://www.w3.org/1999/xlink" x="0px" y="0px"
	 width="226.399px" height="270.4px" viewBox="0 0 226.399 270.4" enable-background="new 0 0 226.399 270.4" xml:space="preserve">
<g id="Layer_1" display="none">
</g>
<g id="Layer_2">
	<g>
		<g>
			<circle cx="79.791" cy="59.879" r="4.343"/>
			<g>
				<path d="M153.912,219.294c-20.764,0-50.959-2.223-76.887-12.812c-28.313-11.561-44.925-30.309-49.375-55.724
					c-5.04-28.798,0.741-49.684,10.973-72.185c7.495-16.474,28.171-54.374,59.693-54.374c0.243,0,0.488,0.003,0.73,0.007
					c0.325-0.133,0.688-0.188,1.064-0.135c15.229,2.044,27.805,4.607,39.479,17.164c9.665,10.397,15.72,22.444,19.05,37.912
					c2.514,11.673,0.659,24.179-1.135,36.274c-2.129,14.365-4.142,27.935,0.558,40.075c8.161,21.079,35.473,38.946,58.378,38.211
					c0.919-0.037,1.751,0.55,2.044,1.423c0.294,0.873-0.02,1.836-0.773,2.367C195.535,213.184,177.648,219.294,153.912,219.294z
					 M98.32,28.376c-29.104,0-48.74,36.198-55.896,51.928c-10.194,22.417-15.534,41.9-10.66,69.734
					c4.185,23.906,19.944,41.596,46.839,52.579c25.305,10.333,54.92,12.502,75.31,12.502c20.903,0,37.12-4.965,56.181-17.475
					c-22.947-2.334-47.952-20.049-55.922-40.642c-5.098-13.168-2.911-27.923-0.795-42.191c1.739-11.727,3.537-23.853,1.183-34.785
					c-3.165-14.702-8.895-26.123-18.027-35.946C125.939,32.687,114.76,30.279,100.214,28.3c-0.222,0.071-0.461,0.107-0.703,0.097
					C99.113,28.383,98.715,28.376,98.32,28.376z"/>
			</g>
			<g>
				<path d="M76.45,204.598c-0.369,0-0.741-0.097-1.08-0.303c-0.987-0.597-1.302-1.88-0.704-2.865
					c7.721-12.759,7.426-37.227,3.71-55.814c-5.707-28.542-18.519-47.239-40.316-58.84c-1.017-0.542-1.403-1.806-0.861-2.823
					c0.541-1.019,1.807-1.406,2.822-0.864c22.99,12.236,36.479,31.842,42.449,61.707c3.874,19.381,4.069,45.077-4.232,58.794
					C77.845,204.241,77.155,204.598,76.45,204.598z"/>
			</g>
			<g>
				<path d="M153.709,169.237c-0.017,0-0.034,0-0.053,0c-18.297-0.462-42.479-6.073-55.466-20.438
					c-6.851-7.577-9.918-16.753-9.124-27.28c0.087-1.15,1.085-2.011,2.238-1.925c1.151,0.087,2.013,1.091,1.926,2.241
					c-0.706,9.338,2.006,17.468,8.058,24.162c11.136,12.317,31.446,17.739,48.2,18.868c-0.329-0.45-0.656-0.899-0.982-1.347
					c-11.276-15.449-21.926-30.042-9.763-52.846c0.543-1.019,1.808-1.4,2.824-0.859c1.018,0.544,1.401,1.806,0.86,2.825
					c-10.932,20.492-1.486,33.434,9.45,48.419c1.176,1.61,2.362,3.234,3.534,4.886c0.457,0.643,0.512,1.492,0.142,2.188
					C155.188,168.814,154.479,169.237,153.709,169.237z"/>
			</g>
			<g>
				<path d="M40.15,85.74c-0.214,0-0.432-0.033-0.646-0.104c-11.397-3.708-27.903-18.294-26.48-30.072
					c0.071-0.586,0.389-1.116,0.873-1.455c11.1-7.811,23.411-5.851,28.188-4.647c6.195,1.563,11.196,4.564,12.738,7.646
					c0.515,1.032,0.096,2.286-0.935,2.802c-1.032,0.514-2.284,0.097-2.802-0.934c-0.814-1.63-4.604-4.098-10.021-5.465
					c-4.104-1.035-14.48-2.708-23.953,3.463c-0.125,9.262,14.085,21.568,23.685,24.694c1.096,0.355,1.696,1.535,1.338,2.63
					C41.848,85.178,41.031,85.74,40.15,85.74z"/>
			</g>
			<g>
				<path d="M45.72,71.265c-0.193,0-0.39-0.028-0.585-0.084c-1.896-0.551-3.849-1.011-5.918-1.5
					c-7.814-1.842-16.674-3.933-24.996-11.792c-0.839-0.792-0.876-2.113-0.083-2.952c0.79-0.838,2.112-0.875,2.95-0.084
					c7.506,7.089,15.428,8.956,23.089,10.764c2.122,0.5,4.125,0.973,6.122,1.553c1.108,0.322,1.745,1.479,1.424,2.587
					C47.459,70.671,46.625,71.265,45.72,71.265z"/>
			</g>
			<g>
				<path d="M72.439,242.676c-0.393,0-0.792-0.108-1.146-0.342c-0.962-0.635-1.23-1.93-0.595-2.893
					c1.898-2.884,4.447-4.868,6.91-6.786c1.946-1.518,3.787-2.951,4.992-4.639c1.589-2.222,2.847-5.677,4.063-9.017
					c1.49-4.095,2.9-7.963,5.057-9.993c0.839-0.789,2.159-0.75,2.951,0.089c0.79,0.839,0.75,2.16-0.09,2.951
					c-1.435,1.351-2.736,4.926-3.996,8.384c-1.312,3.602-2.668,7.327-4.589,10.014c-1.558,2.181-3.727,3.869-5.823,5.503
					c-2.196,1.711-4.469,3.48-5.989,5.792C73.785,242.348,73.117,242.676,72.439,242.676z"/>
			</g>
			<g>
				<path d="M82.465,249.359c-0.147,0-0.298-0.016-0.448-0.049c-1.127-0.248-1.84-1.36-1.593-2.486
					c0.512-2.33,0.509-4.842,0.507-7.5c-0.004-3.102-0.007-6.308,0.862-9.332c0.318-1.106,1.476-1.745,2.584-1.43
					c1.106,0.32,1.748,1.478,1.428,2.585c-0.705,2.456-0.703,5.233-0.7,8.173c0.003,2.765,0.006,5.623-0.602,8.397
					C84.289,248.694,83.425,249.359,82.465,249.359z"/>
			</g>
			<g>
				<path d="M105.845,243.346c-0.199,0-0.404-0.029-0.606-0.091c-8.311-2.531-15.835-8.3-20.771-12.42
					c-0.886-0.739-1.005-2.055-0.267-2.94c0.741-0.886,2.057-1.002,2.941-0.267c4.658,3.889,11.728,9.321,19.312,11.631
					c1.103,0.337,1.725,1.505,1.389,2.606C107.569,242.767,106.741,243.346,105.845,243.346z"/>
			</g>
			<g>
				<path d="M119.302,254.614c-0.096,0-0.19-0.008-0.287-0.02c-1.141-0.157-1.939-1.21-1.785-2.352
					c0.47-3.421,1.91-6.311,3.304-9.104c1.103-2.211,2.144-4.297,2.502-6.34c0.475-2.689,0.118-6.348-0.227-9.888
					c-0.421-4.338-0.819-8.434,0.248-11.193c0.416-1.077,1.626-1.611,2.7-1.195c1.075,0.415,1.61,1.625,1.196,2.699
					c-0.713,1.837-0.342,5.625,0.014,9.288c0.37,3.815,0.754,7.762,0.181,11.012c-0.464,2.643-1.691,5.102-2.876,7.481
					c-1.244,2.489-2.53,5.067-2.905,7.807C121.224,253.857,120.331,254.614,119.302,254.614z"/>
			</g>
			<g>
				<path d="M131.221,256.317c-0.948,0-1.806-0.649-2.03-1.613c-0.546-2.319-1.632-4.584-2.781-6.979
					c-1.344-2.8-2.73-5.691-3.249-8.794c-0.191-1.138,0.575-2.212,1.714-2.403c1.141-0.188,2.213,0.578,2.403,1.714
					c0.422,2.519,1.624,5.025,2.897,7.676c1.193,2.492,2.432,5.07,3.08,7.835c0.264,1.122-0.432,2.244-1.557,2.508
					C131.539,256.298,131.379,256.317,131.221,256.317z"/>
			</g>
			<g>
				<path d="M144.064,241.204c-6.714,0-13.327-1.444-18.129-2.665c-1.118-0.284-1.794-1.421-1.51-2.537
					c0.285-1.118,1.419-1.796,2.539-1.51c5.878,1.494,14.601,3.344,22.44,2.156c1.138-0.18,2.205,0.611,2.378,1.751
					c0.173,1.139-0.611,2.203-1.751,2.375C148.064,241.074,146.058,241.204,144.064,241.204z"/>
			</g>
		</g>
		<path fill="none" d="M-208.893-113.061v398.309h443.401v-398.309H-208.893z"/>
	</g>
	<g id="Layer_3" display="none">
		<g display="inline" enable-background="new    ">
			<path fill="#48535B" d="M-280.702,228.222c-5.6,8.1-13.1,14.5-22.5,19c-5,2.4-9.7,3.9-14.1,4.5c-4.5,0.6-9.2,0.9-14.101,0.9
				h-25.8l-7.6,39.1h-29.101l27.801-143.2h50.899c3.5,0,6.8,0.101,10,0.2s6.2,0.5,9.101,1.1c2.899,0.6,5.699,1.5,8.399,2.7
				s5.2,2.899,7.7,5c5.9,5.399,9.5,12.101,10.8,20s1.101,16.101-0.6,24.7C-271.502,211.421-275.202,220.123-280.702,228.222z
				 M-301.802,178.722c-3.5-5.301-10-7.9-19.5-7.9h-20l-11.601,59.6h17.801c10.3,0,18.399-2.6,24.199-7.699
				c5.9-5.1,9.801-12.7,11.7-22.6C-297.302,191.022-298.202,183.921-301.802,178.722z"/>
			<path fill="#48535B" d="M-197.502,252.522l11.5-59.101c0.8-4.1,1.3-7.6,1.4-10.5c0.1-2.799-0.301-5.199-1.4-7
				c-1-1.799-2.8-3.199-5.4-3.899c-2.6-0.8-6.199-1.2-10.899-1.2h-23.5l-15.9,81.801h-29.2l27.801-142.5h29.1l-7.5,38.399h29.8
				c7.2,0,13.5,0.601,18.7,1.899c5.2,1.301,9.3,3.4,12.4,6.4c3,3,5,7,5.8,12.1c0.8,5.101,0.5,11.4-1,18.9l-12.601,64.7H-197.502z"/>
		</g>
		<g display="inline" enable-background="new    ">
			<path fill="#48535B" d="M-51.302,228.222c-5.6,8.1-13.1,14.5-22.5,19c-5,2.4-9.7,3.9-14.101,4.5c-4.5,0.6-9.199,0.9-14.1,0.9
				h-25.7l-7.6,39.1h-29.101l27.801-143.1h50.899c3.5,0,6.801,0.1,10,0.199c3.2,0.1,6.2,0.5,9.101,1.1
				c2.899,0.601,5.7,1.5,8.399,2.701c2.7,1.199,5.2,2.899,7.7,5c5.9,5.399,9.5,12.1,10.8,20c1.301,7.899,1.101,16.1-0.6,24.699
				C-42.102,211.421-45.802,220.123-51.302,228.222z M-72.401,178.722c-3.5-5.301-10-7.9-19.501-7.9h-20l-11.6,59.6h17.8
				c10.3,0,18.4-2.6,24.2-7.699c5.9-5.1,9.8-12.7,11.7-22.6C-67.901,191.022-68.802,183.921-72.401,178.722z"/>
		</g>
		<path display="inline" fill="#00ADEE" d="M150.398,239.022c-1.4,7.399-8.7,13.5-16.1,13.5H-27.302c-7.399,0-12.3-6-10.8-13.5
			l15-77.101c1.4-7.399,8.6-13.5,16.1-13.5h161.7c7.4,0,12.3,6,10.9,13.5L150.398,239.022z"/>
		<path display="inline" fill="#FFFFFF" d="M19.599,226.921c-3.4,0-6.4-0.299-9-0.899c-2.601-0.601-5.101-2-7.4-4.101
			c-3-2.699-4.8-5.899-5.5-9.799c-0.7-3.801-0.6-7.9,0.3-12.301c0.4-2,1-4.1,1.8-6.199c0.801-2.101,1.801-4.201,3-6.101
			c1.2-1.899,2.601-3.7,4.2-5.399c1.601-1.701,3.4-3.101,5.4-4.301c2.6-1.6,5.3-2.6,8.1-3.1s5.601-0.7,8.3-0.7h20l-2.199,11.3
			H27.498c-3.6,0-6.399,0.6-8.399,1.9c-2,1.3-3.4,3.8-4.4,7.5h30.101l-2.2,11.3H12.498c-0.3,2-0.2,3.7,0.2,4.899
			c0.4,1.301,1.101,2.201,2,2.9c1,0.7,2.2,1.1,3.601,1.4c1.399,0.199,3,0.3,4.899,0.3h17.5l-2.2,11.3L19.599,226.921L19.599,226.921
			z"/>
		<path display="inline" fill="#FFFFFF" d="M108.599,226.921l6.1-31.399c0.3-1.601,0.5-3,0.601-4.3c0.1-1.301-0.101-2.301-0.601-3.2
			c-0.399-0.899-1.2-1.5-2.2-2s-2.5-0.7-4.3-0.7h-7.6l-8.101,41.6h-14.3l8.101-41.6H70.998l-8.1,41.6h-14.3l10.3-52.899h52.4
			c1.5,0,3,0,4.6,0.101c1.5,0.1,3,0.299,4.5,0.5c1.4,0.299,2.8,0.799,4,1.5c1.2,0.699,2.3,1.6,3.1,2.799
			c1.3,1.9,2.101,4.101,2.3,6.701c0.2,2.6,0.101,5.1-0.399,7.699l-6.5,33.7L108.599,226.921L108.599,226.921z"/>
		<line display="inline" fill="none" x1="-427.802" y1="-13.778" x2="-427.802" y2="395.123"/>
		<line display="inline" fill="none" x1="183.498" y1="395.123" x2="183.498" y2="-13.778"/>
		<line display="inline" fill="none" x1="-427.802" y1="395.123" x2="-427.802" y2="-14.578"/>
		<line display="inline" fill="none" x1="183.498" y1="-14.578" x2="183.498" y2="395.123"/>
		
			<text transform="matrix(0.9848 0 -0.1736 0.9848 -369.3115 371.1997)" display="inline" stroke="#000000" stroke-width="5" stroke-miterlimit="10" font-family="'KohinoorDevanagari-Book'" font-size="48.7405">Clicky bird </text>
	</g>
	<g id="Layer_4" display="none">
	</g>
	<g enable-background="new    ">
		<path fill="#48535B" d="M80.548,86.277c-0.882,1.276-2.063,2.286-3.545,2.995c-0.789,0.378-1.529,0.614-2.223,0.709
			c-0.708,0.095-1.45,0.141-2.223,0.141h-4.065l-1.198,6.163h-4.585l4.38-22.568h8.023c0.55,0,1.071,0.016,1.575,0.031
			c0.505,0.016,0.977,0.08,1.436,0.174c0.454,0.094,0.897,0.236,1.322,0.426c0.426,0.188,0.819,0.457,1.214,0.789
			c0.93,0.85,1.497,1.906,1.701,3.151c0.205,1.245,0.174,2.537-0.095,3.893C81.998,83.63,81.415,85.001,80.548,86.277z
			 M77.222,78.476c-0.55-0.835-1.575-1.244-3.072-1.244h-3.15l-1.828,9.392h2.805c1.622,0,2.898-0.409,3.813-1.213
			c0.929-0.804,1.546-2.001,1.844-3.562C77.933,80.415,77.791,79.296,77.222,78.476z"/>
		<path fill="#48535B" d="M93.66,90.108l1.813-9.314c0.126-0.646,0.204-1.197,0.22-1.656c0.017-0.441-0.047-0.819-0.22-1.103
			c-0.158-0.284-0.441-0.504-0.852-0.615c-0.41-0.126-0.978-0.188-1.718-0.188H89.2l-2.505,12.891h-4.603l4.383-22.458h4.585
			l-1.183,6.053h4.697c1.135,0,2.127,0.094,2.946,0.299c0.82,0.206,1.467,0.536,1.955,1.01c0.473,0.472,0.788,1.102,0.913,1.906
			c0.127,0.804,0.079,1.797-0.158,2.979l-1.983,10.197H93.66z"/>
	</g>
	<g enable-background="new    ">
		<path fill="#48535B" d="M116.701,86.277c-0.881,1.276-2.063,2.286-3.546,2.995c-0.786,0.378-1.528,0.614-2.223,0.709
			c-0.708,0.095-1.45,0.141-2.221,0.141h-4.052l-1.197,6.163h-4.584l4.379-22.553h8.022c0.552,0,1.071,0.015,1.576,0.031
			c0.504,0.016,0.977,0.08,1.434,0.174c0.458,0.094,0.899,0.236,1.324,0.425c0.426,0.189,0.819,0.457,1.214,0.788
			c0.93,0.851,1.497,1.906,1.702,3.151c0.204,1.245,0.173,2.537-0.096,3.893C118.152,83.63,117.566,85.001,116.701,86.277z
			 M113.375,78.476c-0.551-0.835-1.575-1.244-3.071-1.244h-3.151l-1.83,9.392h2.807c1.623,0,2.899-0.409,3.813-1.213
			c0.931-0.804,1.543-2.001,1.844-3.562C114.086,80.415,113.942,79.296,113.375,78.476z"/>
	</g>
	<path fill="#00ADEE" d="M148.489,87.979c-0.22,1.166-1.371,2.128-2.538,2.128h-25.468c-1.165,0-1.938-0.946-1.702-2.128
		l2.364-12.151c0.221-1.166,1.355-2.127,2.537-2.127h25.483c1.167,0,1.939,0.945,1.718,2.127L148.489,87.979z"/>
	<path fill="#FFFFFF" d="M127.875,86.072c-0.536,0-1.009-0.047-1.418-0.142c-0.41-0.094-0.804-0.315-1.167-0.646
		c-0.473-0.424-0.756-0.929-0.867-1.544c-0.108-0.599-0.094-1.245,0.049-1.938c0.062-0.315,0.157-0.646,0.282-0.978
		c0.128-0.331,0.285-0.662,0.475-0.961c0.188-0.299,0.409-0.583,0.661-0.851s0.536-0.488,0.851-0.677
		c0.409-0.253,0.835-0.411,1.276-0.489c0.441-0.079,0.883-0.11,1.309-0.11h3.152l-0.348,1.781h-3.011
		c-0.565,0-1.008,0.094-1.322,0.299c-0.315,0.205-0.536,0.599-0.694,1.182h4.744l-0.348,1.78h-4.742
		c-0.048,0.316-0.032,0.583,0.031,0.772c0.062,0.205,0.173,0.347,0.314,0.457c0.158,0.11,0.347,0.174,0.568,0.221
		c0.22,0.031,0.472,0.047,0.771,0.047h2.758l-0.346,1.782L127.875,86.072L127.875,86.072z"/>
	<path fill="#FFFFFF" d="M141.901,86.072l0.962-4.948c0.046-0.252,0.078-0.472,0.095-0.678c0.016-0.204-0.017-0.362-0.095-0.504
		c-0.063-0.142-0.189-0.236-0.349-0.315c-0.156-0.079-0.393-0.109-0.677-0.109h-1.196l-1.278,6.555h-2.254l1.277-6.555h-2.411
		l-1.276,6.555h-2.254l1.624-8.336h8.258c0.235,0,0.473,0,0.725,0.015c0.236,0.017,0.474,0.047,0.71,0.079
		c0.22,0.048,0.44,0.126,0.63,0.237c0.189,0.111,0.362,0.252,0.488,0.441c0.206,0.3,0.331,0.646,0.362,1.056
		s0.017,0.804-0.063,1.214l-1.023,5.31L141.901,86.072L141.901,86.072z"/>
	<line fill="none" x1="57.365" y1="48.139" x2="57.365" y2="112.581"/>
	<line fill="none" x1="153.704" y1="112.581" x2="153.704" y2="48.139"/>
	<line fill="none" x1="187.556" y1="145.081" x2="187.556" y2="80.513"/>
	<line fill="none" x1="153.704" y1="48.013" x2="153.704" y2="112.581"/>
</g>
</svg>
