<?xml version="1.0" encoding="utf-8"?>
<!-- Generator: Adobe Illustrator 16.0.0, SVG Export Plug-In . SVG Version: 6.00 Build 0)  -->
<!DOCTYPE svg PUBLIC "-//W3C//DTD SVG 1.1//EN" "http://www.w3.org/Graphics/SVG/1.1/DTD/svg11.dtd">
<svg version="1.1" xmlns="http://www.w3.org/2000/svg" xmlns:xlink="http://www.w3.org/1999/xlink" x="0px" y="0px"
	 width="841.891px" height="595.281px" viewBox="0 0 841.891 595.281" enable-background="new 0 0 841.891 595.281"
	 xml:space="preserve">
<g id="Layer_2_1_">
	<path fill-rule="evenodd" clip-rule="evenodd" fill="#FFFFFF" d="M394.539,410.182c0.176,0.259,0.326,0.538,0.452,0.833
		c1.3-0.357,2.588-0.753,3.862-1.191c-0.445-0.353-0.891-0.699-1.339-1.04C396.555,409.297,395.561,409.761,394.539,410.182z"/>
	<path fill-rule="evenodd" clip-rule="evenodd" fill="#FFFFFF" d="M454.151,370.492c-4.602-0.675-9.193-1.411-13.771-2.222
		c-10.229-0.67-20.468-1.224-30.711-1.647c-3.929,0.125-7.842,0.242-11.735,0.328c-10.452,0.232-20.896,0.411-31.339,0.631
		c-0.113,0.039-0.225,0.079-0.337,0.118c0.346,0.362,0.608,0.768,0.793,1.2C396.035,368.124,425.141,370.284,454.151,370.492z"/>
	<path fill-rule="evenodd" clip-rule="evenodd" fill="#FFFFFF" d="M396.759,347.375c-5.166,0.545-10.298,1.288-15.359,2.212
		c-0.458,0.084-0.919,0.173-1.378,0.259c2.461,0.146,4.922,0.288,7.383,0.422C390.517,349.29,393.635,348.324,396.759,347.375z"/>
	<path fill-rule="evenodd" clip-rule="evenodd" fill="#FFFFFF" d="M424.305,396.219c7.553-5.099,14.747-10.67,21.953-16.227
		c-38.176-0.803-76.445-3.963-114.347,1.658c-2.934,3.064-5.125,6.873-5.833,10.943c-0.282,1.623-0.354,3.319,0.103,4.917
		c-0.111-0.545,0.708,1.04,0.063,0.334c0.924,1.012,1.072,1.139,2.348,1.841c6.773,3.729,15.354,4.701,22.942,5.229
		c6.391,0.445,12.922,0.558,19.371,0.044c2.302-2.634,5.045-4.658,8.104-6.184c-7.447-0.915-14.423-2.745-18.882-10.112
		c-2.313-3.82,1.47-8.435,5.646-7.345c7.334,1.914,14.553,4.992,21.337,8.744c5.774,0.632,11.519,1.295,16.857,3.76
		c0.576,0.267,1.029,0.636,1.384,1.067c5.99,0.397,11.939,1.348,17.326,2.41C423.221,396.941,423.766,396.583,424.305,396.219z"/>
	<path fill-rule="evenodd" clip-rule="evenodd" fill="#FFFFFF" d="M534.046,328.733c-12.076,5.921-22.896,14.014-33.364,22.383
		c-0.673,0.538-1.351,1.069-2.024,1.605c1.452,0.664,2.893,1.355,4.312,2.102c2.39,1.257,2.911,3.976,2.037,6.155
		c5.147,0.281,10.436,0.667,15.678,1.394c7.145-1.138,14.253-3.046,20.479-6.537c6.72-3.768,12.251-9.984,15.794-16.792
		c1.919-3.686,5.23-11.305,1.789-14.282C553.094,319.87,539.433,326.09,534.046,328.733z"/>
	<path fill-rule="evenodd" clip-rule="evenodd" fill="#FFFFFF" d="M195.769,28.283v500h500v-500H195.769z M462.969,516.458
		c-2.416,1.14-4.847,1.68-7.523,1.683c-2.726,0.003-5-2.276-5-5c0-2.728,2.274-4.997,5-5c0.286,0,0.573,0.001,0.859-0.013
		c0.188-0.009,0.598-0.065,0.768-0.086c0.218-0.048,0.434-0.102,0.646-0.17c0.244-0.079,1.312-0.571,0.204-0.049
		c2.465-1.162,5.374-0.71,6.841,1.794C466.048,511.81,465.433,515.295,462.969,516.458z M592.758,214.394
		c-1.123,2.484-4.676,3.062-6.84,1.795c-2.531-1.482-2.918-4.359-1.795-6.842c-0.424,0.938-0.102-0.035,0.047-0.557
		c0.025-0.258,0.082-0.736,0.084-0.801c0.049-1.025,0.055-2.049,0.057-3.074c0-2.727,2.273-5,5-5c2.725,0,5,2.273,5,5
		C594.308,208.218,594.136,211.349,592.758,214.394z"/>
	<path fill-rule="evenodd" clip-rule="evenodd" fill="#FFFFFF" d="M517.774,375.961c-18.178,3.147-36.443,4.129-54.747,4.192
		c-6.973,5.236-13.969,10.444-20.968,15.651c-5.878,4.372-11.89,8.722-18.153,12.634c-1.553,2.67-3.483,5.167-5.678,7.478
		c1.283,1.87,2.429,3.83,3.404,5.894c36.365-18.364,78.909-23.32,113.086-45.868c-4.27-1.659-8.8-2.768-13.426-3.521
		C521.069,374.111,519.989,375.578,517.774,375.961z"/>
	<g>
		<g>
			<path d="M344.493,368.445c0.367,0,0.678,0.131,0.932,0.393c0.262,0.262,0.393,0.576,0.393,0.943s-0.131,0.678-0.393,0.934
				c-0.254,0.262-0.565,0.393-0.932,0.393h-8.131c-0.367,0-0.678-0.131-0.932-0.393c-0.262-0.256-0.393-0.566-0.393-0.934v-13.465
				c0-0.375,0.131-0.689,0.393-0.943c0.254-0.262,0.565-0.393,0.932-0.393h0.011l8.12,0.021c0.367,0,0.681,0.131,0.943,0.395
				c0.254,0.262,0.382,0.576,0.382,0.943c0,0.365-0.131,0.676-0.393,0.932c-0.254,0.262-0.565,0.393-0.932,0.393h-0.011
				l-6.783-0.021v4.076h4.896c0.367,0,0.681,0.127,0.943,0.381c0.262,0.262,0.393,0.576,0.393,0.943s-0.131,0.682-0.393,0.943
				c-0.262,0.256-0.577,0.383-0.943,0.383h-4.896v4.076H344.493z"/>
			<path d="M388.191,355.339c0.285,0.225,0.449,0.516,0.494,0.875c0.038,0.367-0.06,0.693-0.292,0.979l-4.863,6.086v6.502
				c0,0.367-0.131,0.682-0.393,0.943c-0.254,0.256-0.565,0.383-0.932,0.383s-0.678-0.127-0.932-0.383
				c-0.262-0.262-0.393-0.576-0.393-0.943v-6.502l-4.863-6.086c-0.232-0.285-0.326-0.611-0.281-0.979
				c0.038-0.359,0.198-0.65,0.483-0.875c0.285-0.232,0.61-0.33,0.977-0.293c0.359,0.045,0.655,0.211,0.887,0.494l4.122,5.166
				l4.133-5.166c0.225-0.283,0.517-0.449,0.876-0.494C387.581,355.009,387.906,355.107,388.191,355.339z"/>
			<path d="M450.207,371.107c-2.209,0-4.1-0.783-5.672-2.348c-1.564-1.572-2.346-3.463-2.346-5.672c0-2.215,0.781-4.105,2.346-5.67
				c1.572-1.572,3.463-2.359,5.672-2.359c1.82,0,3.451,0.555,4.896,1.662c0.285,0.225,0.453,0.518,0.506,0.877
				c0.045,0.365-0.045,0.695-0.27,0.988c-0.225,0.291-0.518,0.459-0.877,0.504c-0.367,0.045-0.695-0.041-0.988-0.258
				c-0.957-0.74-2.047-1.111-3.268-1.111c-1.475,0-2.736,0.523-3.785,1.572c-1.047,1.047-1.572,2.312-1.572,3.795
				c0,1.475,0.525,2.736,1.572,3.785c1.049,1.049,2.311,1.572,3.785,1.572c1.393,0,2.598-0.465,3.617-1.393
				c0.27-0.246,0.586-0.363,0.953-0.348c0.367,0.014,0.674,0.16,0.922,0.438c0.246,0.27,0.363,0.588,0.348,0.955
				s-0.156,0.674-0.426,0.92C454.086,370.41,452.281,371.107,450.207,371.107z"/>
			<path d="M459.931,371.107c-0.367,0-0.678-0.131-0.932-0.393c-0.262-0.256-0.393-0.566-0.393-0.934v-13.396
				c0-0.367,0.131-0.678,0.393-0.934c0.254-0.262,0.564-0.393,0.932-0.393s0.678,0.131,0.932,0.393
				c0.264,0.256,0.395,0.566,0.395,0.934v13.396c0,0.367-0.131,0.678-0.395,0.934C460.609,370.976,460.299,371.107,459.931,371.107z
				"/>
			<path d="M488.535,355.339c0.285,0.225,0.449,0.516,0.494,0.875c0.039,0.367-0.059,0.693-0.291,0.979l-4.863,6.086v6.502
				c0,0.367-0.131,0.682-0.393,0.943c-0.254,0.256-0.564,0.383-0.932,0.383s-0.678-0.127-0.934-0.383
				c-0.262-0.262-0.393-0.576-0.393-0.943v-6.502l-4.863-6.086c-0.23-0.285-0.324-0.611-0.279-0.979
				c0.037-0.359,0.197-0.65,0.482-0.875c0.285-0.232,0.609-0.33,0.977-0.293c0.359,0.045,0.656,0.211,0.887,0.494l4.123,5.166
				l4.133-5.166c0.225-0.283,0.516-0.449,0.875-0.494C487.926,355.009,488.252,355.107,488.535,355.339z"/>
		</g>
		<g>
			<g>
				<rect x="501.41" y="361.755" fill="#1A1A1A" width="42.268" height="2.5"/>
			</g>
		</g>
	</g>
	<g>
		<g>
			<polygon fill="#1A1A1A" points="217.922,267.363 214.922,267.363 214.922,208.71 242.43,208.71 242.43,157.904 333.137,157.904 
				333.137,267.019 330.137,267.019 330.137,160.904 245.43,160.904 245.43,211.71 217.922,211.71 			"/>
		</g>
		<g>
			<polygon fill="#1A1A1A" points="364.781,267.019 361.781,267.019 361.781,140.747 315.387,140.747 315.387,159.404 
				312.387,159.404 312.387,137.747 364.781,137.747 			"/>
		</g>
		<g>
			<polygon fill="#1A1A1A" points="418.061,267.363 415.061,267.363 415.061,185.904 451.924,185.904 451.924,267.019 
				448.924,267.019 448.924,188.904 418.061,188.904 			"/>
		</g>
		<g>
			<polygon fill="#1A1A1A" points="538.115,267.986 535.115,267.986 535.115,209.044 465.566,209.044 465.566,267.363 
				462.566,267.363 462.566,206.044 538.115,206.044 			"/>
		</g>
		<g>
			<polygon fill="#1A1A1A" points="480.353,207.544 477.353,207.544 477.353,171.55 440.115,171.55 440.115,187.404 
				437.115,187.404 437.115,168.55 480.353,168.55 			"/>
		</g>
		<g>
			<polygon fill="#1A1A1A" points="606.781,267.986 603.781,267.986 603.781,244.531 549.115,244.531 549.115,267.732 
				546.115,267.732 546.115,241.531 606.781,241.531 			"/>
		</g>
		<g>
			<polygon fill="#1A1A1A" points="530.115,209.033 527.115,209.033 527.115,186.162 490.138,186.162 490.138,207.544 
				487.138,207.544 487.138,183.162 530.115,183.162 			"/>
		</g>
		<g>
			<polygon fill="#1A1A1A" points="583.47,249.062 580.47,249.062 580.47,142.086 519.775,142.086 519.775,184.662 516.775,184.662 
				516.775,139.086 583.47,139.086 			"/>
		</g>
		<polyline fill="#999999" stroke="#1A1A1A" stroke-width="3" stroke-miterlimit="10" points="404.466,140.586 404.466,123.177 
			393.614,123.177 393.614,140.586 		"/>
		<g>
			<g>
				<rect x="201.063" y="267.732" fill="#29ABE2" width="414.076" height="41.588"/>
				<g>
					<rect x="201.454" y="266.232" fill="#1A1A1A" width="413.684" height="3"/>
				</g>
				<g>
					<path fill="#B28B64" d="M239.275,243.714c-4.513,0-8.282,2.229-8.282,8.17v5.199h66.105v-13.369H239.275z"/>
					<g>
						<rect x="230.992" y="257.083" fill="#C69C6D" width="66.188" height="53.109"/>
					</g>
					<g>
						<g>
							<path fill="#534741" d="M243.93,257.083v-4.967c0-1.896-1.726-3.436-3.854-3.436c-2.129,0-3.854,1.539-3.854,3.436v4.967"/>
						</g>
						<g>
							<path fill="#534741" d="M260.039,257.083v-4.967c0-1.896-1.726-3.436-3.854-3.436c-2.129,0-3.854,1.539-3.854,3.436v4.967"/>
						</g>
						<g>
							<path fill="#534741" d="M276.15,257.083v-4.967c0-1.896-1.726-3.436-3.854-3.436c-2.128,0-3.854,1.539-3.854,3.436v4.967"/>
						</g>
						<g>
							<path fill="#534741" d="M292.259,257.083v-4.967c0-1.896-1.726-3.436-3.854-3.436c-2.128,0-3.854,1.539-3.854,3.436v4.967"/>
						</g>
					</g>
					<g>
						<g>
							<g>
								<path fill="#1A1A1A" d="M245.43,257.083h-3v-4.967c0-1.068-1.056-1.936-2.354-1.936c-1.298,0-2.354,0.867-2.354,1.936v4.967
									h-3v-4.967c0-2.723,2.402-4.936,5.354-4.936c2.952,0,5.354,2.213,5.354,4.936V257.083z"/>
							</g>
						</g>
						<g>
							<g>
								<path fill="#1A1A1A" d="M261.539,257.083h-3v-4.967c0-1.068-1.056-1.936-2.354-1.936c-1.298,0-2.354,0.867-2.354,1.936
									v4.967h-3v-4.967c0-2.723,2.402-4.936,5.354-4.936c2.952,0,5.354,2.213,5.354,4.936V257.083z"/>
							</g>
						</g>
						<g>
							<g>
								<path fill="#1A1A1A" d="M277.65,257.083h-3v-4.967c0-1.068-1.056-1.936-2.354-1.936c-1.298,0-2.354,0.867-2.354,1.936v4.967
									h-3v-4.967c0-2.723,2.401-4.936,5.354-4.936c2.953,0,5.354,2.213,5.354,4.936V257.083z"/>
							</g>
						</g>
						<g>
							<g>
								<path fill="#1A1A1A" d="M293.759,257.083h-3v-4.967c0-1.068-1.056-1.936-2.354-1.936c-1.298,0-2.354,0.867-2.354,1.936
									v4.967h-3v-4.967c0-2.723,2.401-4.936,5.354-4.936c2.953,0,5.354,2.213,5.354,4.936V257.083z"/>
							</g>
						</g>
					</g>
					<g>
						<path fill="#1A1A1A" d="M298.598,310.193h-3v-64.979h-56.323c-3.094,0-6.782,1.156-6.782,6.67v58.309h-3v-58.309
							c0-6.055,3.657-9.67,9.782-9.67h59.323V310.193z"/>
					</g>
					<g>
						<rect x="226.772" y="255.583" fill="#1A1A1A" width="74.113" height="3"/>
					</g>
					<g>
						<g>
							<rect x="238.576" y="263.769" fill="#1A1A1A" width="3" height="6.5"/>
						</g>
						<g>
							<rect x="254.686" y="263.769" fill="#1A1A1A" width="3" height="6.5"/>
						</g>
						<g>
							<rect x="270.795" y="263.769" fill="#1A1A1A" width="3" height="6.5"/>
						</g>
						<g>
							<rect x="286.905" y="263.769" fill="#1A1A1A" width="3" height="6.5"/>
						</g>
						<g>
							<rect x="238.576" y="275.035" fill="#1A1A1A" width="3" height="6.498"/>
						</g>
						<g>
							<rect x="254.686" y="275.035" fill="#1A1A1A" width="3" height="6.498"/>
						</g>
						<g>
							<rect x="270.795" y="275.035" fill="#1A1A1A" width="3" height="6.498"/>
						</g>
						<g>
							<rect x="286.905" y="275.035" fill="#1A1A1A" width="3" height="6.498"/>
						</g>
						<g>
							<rect x="238.576" y="286.298" fill="#1A1A1A" width="3" height="6.5"/>
						</g>
						<g>
							<rect x="254.686" y="286.298" fill="#1A1A1A" width="3" height="6.5"/>
						</g>
						<g>
							<rect x="270.795" y="286.298" fill="#1A1A1A" width="3" height="6.5"/>
						</g>
						<g>
							<rect x="286.905" y="286.298" fill="#1A1A1A" width="3" height="6.5"/>
						</g>
						<g>
							<rect x="238.576" y="297.564" fill="#1A1A1A" width="3" height="6.5"/>
						</g>
						<g>
							<rect x="254.686" y="297.564" fill="#1A1A1A" width="3" height="6.5"/>
						</g>
						<g>
							<rect x="270.795" y="297.564" fill="#1A1A1A" width="3" height="6.5"/>
						</g>
						<g>
							<rect x="286.905" y="297.564" fill="#1A1A1A" width="3" height="6.5"/>
						</g>
					</g>
				</g>
			</g>
			<rect x="378.319" y="148.176" fill="#999999" width="40.994" height="86.896"/>
			<g>
				<path fill="#1A1A1A" d="M420.813,236.572h-43.994v-89.896h43.994V236.572z M379.819,233.572h37.994v-83.896h-37.994V233.572z"/>
			</g>
			<g>
				<g>
					<rect x="384.147" y="161.566" fill="#1A1A1A" width="3" height="66.96"/>
				</g>
				<g>
					<rect x="397.539" y="161.566" fill="#1A1A1A" width="3" height="66.96"/>
				</g>
				<g>
					<rect x="410.932" y="161.566" fill="#1A1A1A" width="3" height="66.96"/>
				</g>
			</g>
			<g>
				<rect x="390.285" y="152.787" fill="#1A1A1A" width="3" height="9.523"/>
			</g>
			<g>
				<rect x="404.793" y="152.787" fill="#1A1A1A" width="3" height="9.523"/>
			</g>
			<g>
				<g>
					<polyline fill="#B3B3B3" points="371.25,309.628 371.25,170.05 391.785,170.05 391.785,309.628 					"/>
					<polyline fill="none" stroke="#1A1A1A" stroke-width="3" stroke-miterlimit="10" points="371.25,309.628 371.25,170.05 
						391.785,170.05 391.785,309.628 					"/>
					<g>
						<g>
							<line fill="#CCCCCC" x1="378.319" y1="175.703" x2="378.319" y2="182.25"/>
							<rect x="376.819" y="175.703" fill="#1A1A1A" width="3" height="6.546"/>
						</g>
						<g>
							<line fill="#CCCCCC" x1="384.271" y1="175.703" x2="384.271" y2="182.25"/>
							<rect x="382.771" y="175.703" fill="#1A1A1A" width="3" height="6.546"/>
						</g>
					</g>
					<g>
						<g>
							<line fill="#CCCCCC" x1="378.319" y1="188.349" x2="378.319" y2="194.898"/>
							<rect x="376.819" y="188.349" fill="#1A1A1A" width="3" height="6.549"/>
						</g>
						<g>
							<line fill="#CCCCCC" x1="384.271" y1="188.349" x2="384.271" y2="194.898"/>
							<rect x="382.771" y="188.349" fill="#1A1A1A" width="3" height="6.549"/>
						</g>
					</g>
					<g>
						<g>
							<line fill="#CCCCCC" x1="378.319" y1="200.998" x2="378.319" y2="207.544"/>
							<rect x="376.819" y="200.998" fill="#1A1A1A" width="3" height="6.547"/>
						</g>
						<g>
							<line fill="#CCCCCC" x1="384.271" y1="200.998" x2="384.271" y2="207.544"/>
							<rect x="382.771" y="200.998" fill="#1A1A1A" width="3" height="6.547"/>
						</g>
					</g>
					<g>
						<g>
							<line fill="#CCCCCC" x1="378.319" y1="213.646" x2="378.319" y2="220.193"/>
							<rect x="376.819" y="213.646" fill="#1A1A1A" width="3" height="6.547"/>
						</g>
						<g>
							<line fill="#CCCCCC" x1="384.271" y1="213.646" x2="384.271" y2="220.193"/>
							<rect x="382.771" y="213.646" fill="#1A1A1A" width="3" height="6.547"/>
						</g>
					</g>
					<g>
						<g>
							<line fill="#CCCCCC" x1="378.319" y1="226.294" x2="378.319" y2="232.841"/>
							<rect x="376.819" y="226.294" fill="#1A1A1A" width="3" height="6.547"/>
						</g>
						<g>
							<line fill="#CCCCCC" x1="384.271" y1="226.294" x2="384.271" y2="232.841"/>
							<rect x="382.771" y="226.294" fill="#1A1A1A" width="3" height="6.547"/>
						</g>
					</g>
					<g>
						<g>
							<line fill="#CCCCCC" x1="378.319" y1="238.941" x2="378.319" y2="245.488"/>
							<rect x="376.819" y="238.941" fill="#1A1A1A" width="3" height="6.547"/>
						</g>
						<g>
							<line fill="#CCCCCC" x1="384.271" y1="238.941" x2="384.271" y2="245.488"/>
							<rect x="382.771" y="238.941" fill="#1A1A1A" width="3" height="6.547"/>
						</g>
					</g>
					<g>
						<g>
							<line fill="#CCCCCC" x1="378.319" y1="251.589" x2="378.319" y2="258.136"/>
							<rect x="376.819" y="251.589" fill="#1A1A1A" width="3" height="6.547"/>
						</g>
						<g>
							<line fill="#CCCCCC" x1="384.271" y1="251.589" x2="384.271" y2="258.136"/>
							<rect x="382.771" y="251.589" fill="#1A1A1A" width="3" height="6.547"/>
						</g>
					</g>
					<g>
						<g>
							<line fill="#CCCCCC" x1="378.319" y1="264.236" x2="378.319" y2="270.783"/>
							<rect x="376.819" y="264.236" fill="#1A1A1A" width="3" height="6.547"/>
						</g>
						<g>
							<line fill="#CCCCCC" x1="384.271" y1="264.236" x2="384.271" y2="270.783"/>
							<rect x="382.771" y="264.236" fill="#1A1A1A" width="3" height="6.547"/>
						</g>
					</g>
					<g>
						<g>
							<line fill="#CCCCCC" x1="378.319" y1="276.882" x2="378.319" y2="283.431"/>
							<rect x="376.819" y="276.882" fill="#1A1A1A" width="3" height="6.549"/>
						</g>
						<g>
							<line fill="#CCCCCC" x1="384.271" y1="276.882" x2="384.271" y2="283.431"/>
							<rect x="382.771" y="276.882" fill="#1A1A1A" width="3" height="6.549"/>
						</g>
					</g>
					<g>
						<g>
							<line fill="#CCCCCC" x1="378.319" y1="289.531" x2="378.319" y2="296.078"/>
							<rect x="376.819" y="289.531" fill="#1A1A1A" width="3" height="6.547"/>
						</g>
						<g>
							<line fill="#CCCCCC" x1="384.271" y1="289.531" x2="384.271" y2="296.078"/>
							<rect x="382.771" y="289.531" fill="#1A1A1A" width="3" height="6.547"/>
						</g>
					</g>
					<g>
						<g>
							<line fill="#CCCCCC" x1="378.319" y1="302.177" x2="378.319" y2="308.726"/>
							<rect x="376.819" y="302.177" fill="#1A1A1A" width="3" height="6.549"/>
						</g>
						<g>
							<line fill="#CCCCCC" x1="384.271" y1="302.177" x2="384.271" y2="308.726"/>
							<rect x="382.771" y="302.177" fill="#1A1A1A" width="3" height="6.549"/>
						</g>
					</g>
				</g>
				<g>
					<polyline fill="#B3B3B3" points="406.293,309.628 406.293,170.05 426.828,170.05 426.828,309.628 					"/>
					<g>
						<polygon fill="#1A1A1A" points="428.328,309.628 425.328,309.628 425.328,171.55 407.793,171.55 407.793,309.628 
							404.793,309.628 404.793,168.55 428.328,168.55 						"/>
					</g>
					<g>
						<g>
							<line fill="#CCCCCC" x1="413.362" y1="175.703" x2="413.362" y2="182.25"/>
							<rect x="411.862" y="175.703" fill="#1A1A1A" width="3" height="6.546"/>
						</g>
						<g>
							<line fill="#CCCCCC" x1="419.313" y1="175.703" x2="419.313" y2="182.25"/>
							<rect x="417.813" y="175.703" fill="#1A1A1A" width="3" height="6.546"/>
						</g>
					</g>
					<g>
						<g>
							<line fill="#CCCCCC" x1="413.362" y1="188.349" x2="413.362" y2="194.898"/>
							<rect x="411.862" y="188.349" fill="#1A1A1A" width="3" height="6.549"/>
						</g>
						<g>
							<line fill="#CCCCCC" x1="419.313" y1="188.349" x2="419.313" y2="194.898"/>
							<rect x="417.813" y="188.349" fill="#1A1A1A" width="3" height="6.549"/>
						</g>
					</g>
					<g>
						<g>
							<line fill="#CCCCCC" x1="413.362" y1="200.998" x2="413.362" y2="207.544"/>
							<rect x="411.862" y="200.998" fill="#1A1A1A" width="3" height="6.547"/>
						</g>
						<g>
							<line fill="#CCCCCC" x1="419.313" y1="200.998" x2="419.313" y2="207.544"/>
							<rect x="417.813" y="200.998" fill="#1A1A1A" width="3" height="6.547"/>
						</g>
					</g>
					<g>
						<g>
							<line fill="#CCCCCC" x1="413.362" y1="213.646" x2="413.362" y2="220.193"/>
							<rect x="411.862" y="213.646" fill="#1A1A1A" width="3" height="6.547"/>
						</g>
						<g>
							<line fill="#CCCCCC" x1="419.313" y1="213.646" x2="419.313" y2="220.193"/>
							<rect x="417.813" y="213.646" fill="#1A1A1A" width="3" height="6.547"/>
						</g>
					</g>
					<g>
						<g>
							<line fill="#CCCCCC" x1="413.362" y1="226.294" x2="413.362" y2="232.841"/>
							<rect x="411.862" y="226.294" fill="#1A1A1A" width="3" height="6.547"/>
						</g>
						<g>
							<line fill="#CCCCCC" x1="419.313" y1="226.294" x2="419.313" y2="232.841"/>
							<rect x="417.813" y="226.294" fill="#1A1A1A" width="3" height="6.547"/>
						</g>
					</g>
					<g>
						<g>
							<line fill="#CCCCCC" x1="413.362" y1="238.941" x2="413.362" y2="245.488"/>
							<rect x="411.862" y="238.941" fill="#1A1A1A" width="3" height="6.547"/>
						</g>
						<g>
							<line fill="#CCCCCC" x1="419.313" y1="238.941" x2="419.313" y2="245.488"/>
							<rect x="417.813" y="238.941" fill="#1A1A1A" width="3" height="6.547"/>
						</g>
					</g>
					<g>
						<g>
							<line fill="#CCCCCC" x1="413.362" y1="251.589" x2="413.362" y2="258.136"/>
							<rect x="411.862" y="251.589" fill="#1A1A1A" width="3" height="6.547"/>
						</g>
						<g>
							<line fill="#CCCCCC" x1="419.313" y1="251.589" x2="419.313" y2="258.136"/>
							<rect x="417.813" y="251.589" fill="#1A1A1A" width="3" height="6.547"/>
						</g>
					</g>
					<g>
						<g>
							<line fill="#CCCCCC" x1="413.362" y1="264.236" x2="413.362" y2="270.783"/>
							<rect x="411.862" y="264.236" fill="#1A1A1A" width="3" height="6.547"/>
						</g>
						<g>
							<line fill="#CCCCCC" x1="419.313" y1="264.236" x2="419.313" y2="270.783"/>
							<rect x="417.813" y="264.236" fill="#1A1A1A" width="3" height="6.547"/>
						</g>
					</g>
					<g>
						<g>
							<line fill="#CCCCCC" x1="413.362" y1="276.882" x2="413.362" y2="283.431"/>
							<rect x="411.862" y="276.882" fill="#1A1A1A" width="3" height="6.549"/>
						</g>
						<g>
							<line fill="#CCCCCC" x1="419.313" y1="276.882" x2="419.313" y2="283.431"/>
							<rect x="417.813" y="276.882" fill="#1A1A1A" width="3" height="6.549"/>
						</g>
					</g>
					<g>
						<g>
							<line fill="#CCCCCC" x1="413.362" y1="289.531" x2="413.362" y2="296.078"/>
							<rect x="411.862" y="289.531" fill="#1A1A1A" width="3" height="6.547"/>
						</g>
						<g>
							<line fill="#CCCCCC" x1="419.313" y1="289.531" x2="419.313" y2="296.078"/>
							<rect x="417.813" y="289.531" fill="#1A1A1A" width="3" height="6.547"/>
						</g>
					</g>
					<g>
						<g>
							<line fill="#CCCCCC" x1="413.362" y1="302.177" x2="413.362" y2="308.726"/>
							<rect x="411.862" y="302.177" fill="#1A1A1A" width="3" height="6.549"/>
						</g>
						<g>
							<line fill="#CCCCCC" x1="419.313" y1="302.177" x2="419.313" y2="308.726"/>
							<rect x="417.813" y="302.177" fill="#1A1A1A" width="3" height="6.549"/>
						</g>
					</g>
				</g>
			</g>
			<g>
				<g>
					<rect x="397.539" y="76.454" fill="#1A1A1A" width="3" height="46.723"/>
				</g>
				<g>
					<polygon fill="#1A1A1A" points="405.965,112.178 399.039,112.178 399.039,109.178 402.965,109.178 402.965,98.922 
						405.965,98.922 					"/>
				</g>
				<g>
					<polyline fill="#999999" points="384.197,148.176 384.197,140.586 413.883,140.586 413.883,148.176 					"/>
					<polygon fill="#1A1A1A" points="415.383,148.176 412.383,148.176 412.383,142.086 385.697,142.086 385.697,148.176 
						382.697,148.176 382.697,139.086 415.383,139.086 					"/>
				</g>
				<g>
					<g>
						<rect x="387.829" y="140.586" fill="#1A1A1A" width="3" height="7.59"/>
					</g>
					<g>
						<rect x="394.302" y="140.586" fill="#1A1A1A" width="3" height="7.59"/>
					</g>
					<g>
						<rect x="400.775" y="140.586" fill="#1A1A1A" width="3" height="7.59"/>
					</g>
					<g>
						<rect x="407.248" y="140.586" fill="#1A1A1A" width="3" height="7.59"/>
					</g>
				</g>
				<g>
					<g>
						<polyline fill="#CCCCCC" points="361.059,309.628 361.059,261.265 380.477,261.265 380.477,309.628 						"/>
						<g>
							<polygon fill="#1A1A1A" points="381.977,309.628 378.977,309.628 378.977,262.765 362.559,262.765 362.559,309.628 
								359.559,309.628 359.559,259.765 381.977,259.765 							"/>
						</g>
						<g>
							<g>
								<line fill="#CCCCCC" x1="366.118" y1="267.363" x2="366.118" y2="274.207"/>
								<rect x="364.618" y="267.363" fill="#1A1A1A" width="3" height="6.844"/>
							</g>
							<g>
								<line fill="#CCCCCC" x1="366.118" y1="277.183" x2="366.118" y2="284.029"/>
								<rect x="364.618" y="277.183" fill="#1A1A1A" width="3" height="6.846"/>
							</g>
							<g>
								<line fill="#CCCCCC" x1="366.118" y1="287.003" x2="366.118" y2="293.849"/>
								<rect x="364.618" y="287.003" fill="#1A1A1A" width="3" height="6.846"/>
							</g>
							<g>
								<line fill="#CCCCCC" x1="366.118" y1="296.824" x2="366.118" y2="303.669"/>
								<rect x="364.618" y="296.824" fill="#1A1A1A" width="3" height="6.846"/>
							</g>
							<g>
								<line fill="#CCCCCC" x1="370.768" y1="267.363" x2="370.768" y2="274.207"/>
								<rect x="369.268" y="267.363" fill="#1A1A1A" width="3" height="6.844"/>
							</g>
							<g>
								<line fill="#CCCCCC" x1="370.768" y1="277.183" x2="370.768" y2="284.029"/>
								<rect x="369.268" y="277.183" fill="#1A1A1A" width="3" height="6.846"/>
							</g>
							<g>
								<line fill="#CCCCCC" x1="370.768" y1="287.003" x2="370.768" y2="293.849"/>
								<rect x="369.268" y="287.003" fill="#1A1A1A" width="3" height="6.846"/>
							</g>
							<g>
								<line fill="#CCCCCC" x1="370.768" y1="296.824" x2="370.768" y2="303.669"/>
								<rect x="369.268" y="296.824" fill="#1A1A1A" width="3" height="6.846"/>
							</g>
							<g>
								<line fill="#CCCCCC" x1="375.417" y1="267.363" x2="375.417" y2="274.207"/>
								<rect x="373.917" y="267.363" fill="#1A1A1A" width="3" height="6.844"/>
							</g>
							<g>
								<line fill="#CCCCCC" x1="375.417" y1="277.183" x2="375.417" y2="284.029"/>
								<rect x="373.917" y="277.183" fill="#1A1A1A" width="3" height="6.846"/>
							</g>
							<g>
								<line fill="#CCCCCC" x1="375.417" y1="287.003" x2="375.417" y2="293.849"/>
								<rect x="373.917" y="287.003" fill="#1A1A1A" width="3" height="6.846"/>
							</g>
							<g>
								<line fill="#CCCCCC" x1="375.417" y1="296.824" x2="375.417" y2="303.669"/>
								<rect x="373.917" y="296.824" fill="#1A1A1A" width="3" height="6.846"/>
							</g>
						</g>
					</g>
					<g>
						<polyline fill="#CCCCCC" points="389.329,309.628 389.329,229.419 408.748,229.419 408.748,309.628 						"/>
						<g>
							<polygon fill="#1A1A1A" points="410.248,309.628 407.248,309.628 407.248,230.919 390.829,230.919 390.829,309.628 
								387.829,309.628 387.829,227.919 410.248,227.919 							"/>
						</g>
						<g>
							<g>
								<line fill="#CCCCCC" x1="393.682" y1="233.14" x2="393.682" y2="238.054"/>
								<rect x="392.182" y="233.14" fill="#1A1A1A" width="3" height="4.914"/>
							</g>
							<g>
								<line fill="#CCCCCC" x1="399.039" y1="233.14" x2="399.039" y2="238.054"/>
								<rect x="397.539" y="233.14" fill="#1A1A1A" width="3" height="4.914"/>
							</g>
							<g>
								<line fill="#CCCCCC" x1="404.394" y1="233.14" x2="404.394" y2="238.054"/>
								<rect x="402.894" y="233.14" fill="#1A1A1A" width="3" height="4.914"/>
							</g>
						</g>
						<g>
							<g>
								<line fill="#CCCCCC" x1="393.682" y1="243.031" x2="393.682" y2="247.947"/>
								<rect x="392.182" y="243.031" fill="#1A1A1A" width="3" height="4.916"/>
							</g>
							<g>
								<line fill="#CCCCCC" x1="399.039" y1="243.031" x2="399.039" y2="247.947"/>
								<rect x="397.539" y="243.031" fill="#1A1A1A" width="3" height="4.916"/>
							</g>
							<g>
								<line fill="#CCCCCC" x1="404.394" y1="243.031" x2="404.394" y2="247.947"/>
								<rect x="402.894" y="243.031" fill="#1A1A1A" width="3" height="4.916"/>
							</g>
						</g>
						<g>
							<g>
								<line fill="#CCCCCC" x1="393.682" y1="252.923" x2="393.682" y2="257.837"/>
								<rect x="392.182" y="252.923" fill="#1A1A1A" width="3" height="4.914"/>
							</g>
							<g>
								<line fill="#CCCCCC" x1="399.039" y1="252.923" x2="399.039" y2="257.837"/>
								<rect x="397.539" y="252.923" fill="#1A1A1A" width="3" height="4.914"/>
							</g>
							<g>
								<line fill="#CCCCCC" x1="404.394" y1="252.923" x2="404.394" y2="257.837"/>
								<rect x="402.894" y="252.923" fill="#1A1A1A" width="3" height="4.914"/>
							</g>
						</g>
						<g>
							<g>
								<line fill="#CCCCCC" x1="393.682" y1="262.816" x2="393.682" y2="267.73"/>
								<rect x="392.182" y="262.816" fill="#1A1A1A" width="3" height="4.914"/>
							</g>
							<g>
								<line fill="#CCCCCC" x1="399.039" y1="262.816" x2="399.039" y2="267.73"/>
								<rect x="397.539" y="262.816" fill="#1A1A1A" width="3" height="4.914"/>
							</g>
							<g>
								<line fill="#CCCCCC" x1="404.394" y1="262.816" x2="404.394" y2="267.73"/>
								<rect x="402.894" y="262.816" fill="#1A1A1A" width="3" height="4.914"/>
							</g>
						</g>
						<g>
							<g>
								<line fill="#CCCCCC" x1="393.682" y1="272.708" x2="393.682" y2="277.623"/>
								<rect x="392.182" y="272.708" fill="#1A1A1A" width="3" height="4.914"/>
							</g>
							<g>
								<line fill="#CCCCCC" x1="399.039" y1="272.708" x2="399.039" y2="277.623"/>
								<rect x="397.539" y="272.708" fill="#1A1A1A" width="3" height="4.914"/>
							</g>
							<g>
								<line fill="#CCCCCC" x1="404.394" y1="272.708" x2="404.394" y2="277.623"/>
								<rect x="402.894" y="272.708" fill="#1A1A1A" width="3" height="4.914"/>
							</g>
						</g>
						<g>
							<g>
								<line fill="#CCCCCC" x1="393.682" y1="282.599" x2="393.682" y2="287.515"/>
								<rect x="392.182" y="282.599" fill="#1A1A1A" width="3" height="4.916"/>
							</g>
							<g>
								<line fill="#CCCCCC" x1="399.039" y1="282.599" x2="399.039" y2="287.515"/>
								<rect x="397.539" y="282.599" fill="#1A1A1A" width="3" height="4.916"/>
							</g>
							<g>
								<line fill="#CCCCCC" x1="404.394" y1="282.599" x2="404.394" y2="287.515"/>
								<rect x="402.894" y="282.599" fill="#1A1A1A" width="3" height="4.916"/>
							</g>
						</g>
						<g>
							<g>
								<line fill="#CCCCCC" x1="393.682" y1="292.492" x2="393.682" y2="297.408"/>
								<rect x="392.182" y="292.492" fill="#1A1A1A" width="3" height="4.916"/>
							</g>
							<g>
								<line fill="#CCCCCC" x1="399.039" y1="292.492" x2="399.039" y2="297.408"/>
								<rect x="397.539" y="292.492" fill="#1A1A1A" width="3" height="4.916"/>
							</g>
							<g>
								<line fill="#CCCCCC" x1="404.394" y1="292.492" x2="404.394" y2="297.408"/>
								<rect x="402.894" y="292.492" fill="#1A1A1A" width="3" height="4.916"/>
							</g>
						</g>
						<g>
							<g>
								<line fill="#CCCCCC" x1="393.682" y1="302.384" x2="393.682" y2="307.298"/>
								<rect x="392.182" y="302.384" fill="#1A1A1A" width="3" height="4.914"/>
							</g>
							<g>
								<line fill="#CCCCCC" x1="399.039" y1="302.384" x2="399.039" y2="307.298"/>
								<rect x="397.539" y="302.384" fill="#1A1A1A" width="3" height="4.914"/>
							</g>
							<g>
								<line fill="#CCCCCC" x1="404.394" y1="302.384" x2="404.394" y2="307.298"/>
								<rect x="402.894" y="302.384" fill="#1A1A1A" width="3" height="4.914"/>
							</g>
						</g>
					</g>
					<g>
						<polyline fill="#CCCCCC" points="417.602,309.628 417.602,261.265 437.019,261.265 437.019,309.628 						"/>
						<g>
							<polygon fill="#1A1A1A" points="438.519,309.628 435.519,309.628 435.519,262.765 419.102,262.765 419.102,309.628 
								416.102,309.628 416.102,259.765 438.519,259.765 							"/>
						</g>
						<g>
							<g>
								<line fill="#CCCCCC" x1="422.662" y1="267.363" x2="422.662" y2="274.207"/>
								<rect x="421.162" y="267.363" fill="#1A1A1A" width="3" height="6.844"/>
							</g>
							<g>
								<line fill="#CCCCCC" x1="422.662" y1="277.183" x2="422.662" y2="284.029"/>
								<rect x="421.162" y="277.183" fill="#1A1A1A" width="3" height="6.846"/>
							</g>
							<g>
								<line fill="#CCCCCC" x1="422.662" y1="287.003" x2="422.662" y2="293.849"/>
								<rect x="421.162" y="287.003" fill="#1A1A1A" width="3" height="6.846"/>
							</g>
							<g>
								<line fill="#CCCCCC" x1="422.662" y1="296.824" x2="422.662" y2="303.669"/>
								<rect x="421.162" y="296.824" fill="#1A1A1A" width="3" height="6.846"/>
							</g>
							<g>
								<line fill="#CCCCCC" x1="427.31" y1="267.363" x2="427.31" y2="274.207"/>
								<rect x="425.81" y="267.363" fill="#1A1A1A" width="3" height="6.844"/>
							</g>
							<g>
								<line fill="#CCCCCC" x1="427.31" y1="277.183" x2="427.31" y2="284.029"/>
								<rect x="425.81" y="277.183" fill="#1A1A1A" width="3" height="6.846"/>
							</g>
							<g>
								<line fill="#CCCCCC" x1="427.31" y1="287.003" x2="427.31" y2="293.849"/>
								<rect x="425.81" y="287.003" fill="#1A1A1A" width="3" height="6.846"/>
							</g>
							<g>
								<line fill="#CCCCCC" x1="427.31" y1="296.824" x2="427.31" y2="303.669"/>
								<rect x="425.81" y="296.824" fill="#1A1A1A" width="3" height="6.846"/>
							</g>
							<g>
								<line fill="#CCCCCC" x1="431.961" y1="267.363" x2="431.961" y2="274.207"/>
								<rect x="430.461" y="267.363" fill="#1A1A1A" width="3" height="6.844"/>
							</g>
							<g>
								<line fill="#CCCCCC" x1="431.961" y1="277.183" x2="431.961" y2="284.029"/>
								<rect x="430.461" y="277.183" fill="#1A1A1A" width="3" height="6.846"/>
							</g>
							<g>
								<line fill="#CCCCCC" x1="431.961" y1="287.003" x2="431.961" y2="293.849"/>
								<rect x="430.461" y="287.003" fill="#1A1A1A" width="3" height="6.846"/>
							</g>
							<g>
								<line fill="#CCCCCC" x1="431.961" y1="296.824" x2="431.961" y2="303.669"/>
								<rect x="430.461" y="296.824" fill="#1A1A1A" width="3" height="6.846"/>
							</g>
						</g>
					</g>
				</g>
			</g>
			<g>
				<rect x="216.422" y="308.128" fill="#1A1A1A" width="341.98" height="3"/>
			</g>
			<g>
				<rect x="565.099" y="307.82" fill="#1A1A1A" width="8.928" height="3"/>
			</g>
			<g>
				<rect x="580.277" y="307.226" fill="#1A1A1A" width="34.861" height="3"/>
			</g>
			<g>
				<rect x="192.358" y="308.128" fill="#1A1A1A" width="17.409" height="3"/>
			</g>
		</g>
		<g>
			<g>
				<polyline fill="#C7B299" points="456.674,283.884 456.674,248.359 492.924,248.359 508.424,248.359 508.424,283.884 				"/>
				<g>
					<polygon fill="#1A1A1A" points="509.924,283.884 506.924,283.884 506.924,249.859 458.174,249.859 458.174,283.884 
						455.174,283.884 455.174,246.859 509.924,246.859 					"/>
				</g>
				<g>
					<rect x="462.299" y="254.207" fill="#1A1A1A" width="3" height="23.748"/>
					<rect x="471.674" y="254.207" fill="#1A1A1A" width="3" height="23.748"/>
					<rect x="481.049" y="254.207" fill="#1A1A1A" width="3" height="23.748"/>
					<rect x="490.424" y="254.207" fill="#1A1A1A" width="3" height="23.748"/>
					<rect x="499.799" y="254.207" fill="#1A1A1A" width="3" height="23.748"/>
				</g>
				<g>
					<polyline fill="#C7B299" points="508.424,283.884 508.424,309.572 456.674,309.572 456.674,283.884 					"/>
					<g>
						<polygon fill="#1A1A1A" points="509.924,311.072 455.174,311.072 455.174,283.884 458.174,283.884 458.174,308.072 
							506.924,308.072 506.924,283.884 509.924,283.884 						"/>
					</g>
					<g>
						<line fill="#C7B299" x1="450.424" y1="283.884" x2="514.674" y2="283.884"/>
						<rect x="450.424" y="282.384" fill="#1A1A1A" width="64.25" height="3"/>
					</g>
					<g>
						<line fill="#C7B299" x1="450.424" y1="248.359" x2="514.674" y2="248.359"/>
						<rect x="450.424" y="246.859" fill="#1A1A1A" width="64.25" height="3"/>
					</g>
					<g>
						<line fill="#C7B299" x1="453.424" y1="242.269" x2="511.674" y2="242.269"/>
						<rect x="453.424" y="240.769" fill="#1A1A1A" width="58.25" height="3"/>
					</g>
				</g>
				<g>
					<g>
						<g>
							<rect x="462.299" y="288.798" fill="#1A1A1A" width="3" height="5.809"/>
						</g>
						<g>
							<rect x="462.299" y="298.691" fill="#1A1A1A" width="3" height="6.445"/>
						</g>
					</g>
					<g>
						<g>
							<rect x="471.674" y="288.798" fill="#1A1A1A" width="3" height="5.809"/>
						</g>
						<g>
							<rect x="471.674" y="298.691" fill="#1A1A1A" width="3" height="6.445"/>
						</g>
					</g>
					<g>
						<g>
							<rect x="481.049" y="288.798" fill="#1A1A1A" width="3" height="5.809"/>
						</g>
						<g>
							<rect x="481.049" y="298.691" fill="#1A1A1A" width="3" height="6.445"/>
						</g>
					</g>
					<g>
						<g>
							<rect x="490.424" y="288.798" fill="#1A1A1A" width="3" height="5.809"/>
						</g>
						<g>
							<rect x="490.424" y="298.691" fill="#1A1A1A" width="3" height="6.445"/>
						</g>
					</g>
					<g>
						<g>
							<rect x="499.799" y="288.798" fill="#1A1A1A" width="3" height="5.809"/>
						</g>
						<g>
							<rect x="499.799" y="298.691" fill="#1A1A1A" width="3" height="6.445"/>
						</g>
					</g>
				</g>
			</g>
			<g>
				<g>
					<rect x="455.174" y="242.269" fill="#1A1A1A" width="3" height="6.09"/>
				</g>
				<g>
					<rect x="462.566" y="242.269" fill="#1A1A1A" width="3" height="6.09"/>
				</g>
				<g>
					<rect x="469.961" y="242.269" fill="#1A1A1A" width="3" height="6.09"/>
				</g>
				<g>
					<rect x="477.353" y="242.269" fill="#1A1A1A" width="3" height="6.09"/>
				</g>
				<g>
					<rect x="484.746" y="242.269" fill="#1A1A1A" width="3" height="6.09"/>
				</g>
				<g>
					<rect x="492.138" y="242.269" fill="#1A1A1A" width="3" height="6.09"/>
				</g>
				<g>
					<rect x="499.531" y="242.269" fill="#1A1A1A" width="3" height="6.09"/>
				</g>
				<g>
					<rect x="506.924" y="242.269" fill="#1A1A1A" width="3" height="6.09"/>
				</g>
			</g>
		</g>
		<g>
			<polygon fill="#FBB03B" points="210.033,298.919 192.091,298.919 200.655,275.49 			"/>
			<g>
				<path fill="#1A1A1A" d="M212.25,300.419h-22.304l10.646-29.125L212.25,300.419z M194.237,297.419h13.581l-7.099-17.734
					L194.237,297.419z"/>
			</g>
			<polygon fill="#F15A24" stroke="#1A1A1A" stroke-width="3" stroke-miterlimit="10" points="210.033,290.957 192.091,290.957 
				200.655,267.527 			"/>
			<g>
				<path fill="#1A1A1A" d="M212.25,292.457h-22.304l10.646-29.125L212.25,292.457z M194.237,289.457h13.581l-7.099-17.734
					L194.237,289.457z"/>
			</g>
			<g>
				<rect x="199.563" y="298.919" fill="#1A1A1A" width="3" height="10.715"/>
			</g>
		</g>
		<g>
			<circle fill="#FCEE21" cx="352.49" cy="83.256" r="17.75"/>
			<g>
				<path fill="#1A1A1A" d="M352.49,102.506c-10.614,0-19.25-8.635-19.25-19.25c0-10.614,8.636-19.25,19.25-19.25
					s19.25,8.636,19.25,19.25C371.74,93.871,363.104,102.506,352.49,102.506z M352.49,67.006c-8.96,0-16.25,7.29-16.25,16.25
					s7.29,16.25,16.25,16.25s16.25-7.289,16.25-16.25S361.45,67.006,352.49,67.006z"/>
			</g>
			<g>
				<path fill="#1A1A1A" d="M346.086,111.466c-4.202-0.95-8.213-2.877-11.598-5.572l1.868-2.347
					c3.034,2.416,6.627,4.143,10.391,4.993L346.086,111.466z M358.948,111.453l-0.667-2.924c3.762-0.859,7.352-2.592,10.38-5.014
					l1.873,2.344C367.156,108.561,363.149,110.495,358.948,111.453z M326.448,95.854c-1.902-3.927-2.871-8.145-2.88-12.539l3-0.006
					c0.008,3.938,0.875,7.719,2.58,11.236L326.448,95.854z M378.555,95.802l-2.702-1.303c1.697-3.52,2.558-7.303,2.558-11.243
					v-0.111h3v0.111C381.411,87.651,380.45,91.872,378.555,95.802z M329.104,72.061l-2.705-1.297c1.863-3.885,4.629-7.368,8-10.074
					l1.878,2.34C333.254,65.456,330.774,68.579,329.104,72.061z M375.808,71.92c-1.691-3.471-4.189-6.579-7.227-8.987l1.864-2.351
					c3.386,2.686,6.173,6.152,8.06,10.024L375.808,71.92z M346.648,57.996l-0.674-2.924c2.125-0.489,4.322-0.729,6.516-0.737
					c2.139,0,4.275,0.235,6.346,0.699l-0.655,2.928c-1.857-0.416-3.771-0.626-5.691-0.626c-0.002,0-0.004,0-0.006,0
					C350.513,57.335,348.55,57.557,346.648,57.996z"/>
			</g>
		</g>
		<g>
			<polyline fill-rule="evenodd" clip-rule="evenodd" fill="#534741" points="347.307,201.64 347.307,309.123 311.286,309.123 
				311.286,201.64 			"/>
			<g>
				<polygon fill="#1A1A1A" points="348.807,310.623 309.786,310.623 309.786,201.64 312.786,201.64 312.786,307.623 
					345.807,307.623 345.807,201.64 348.807,201.64 				"/>
			</g>
			<g>
				<g>
					<g>
						<g>
							<rect x="315.113" y="206.376" fill="#1A1A1A" width="3" height="4.857"/>
						</g>
						<g>
							<rect x="323.569" y="206.376" fill="#1A1A1A" width="3" height="4.857"/>
						</g>
						<g>
							<rect x="332.025" y="206.376" fill="#1A1A1A" width="3" height="4.857"/>
						</g>
						<g>
							<rect x="340.481" y="206.376" fill="#1A1A1A" width="3" height="4.857"/>
						</g>
					</g>
					<g>
						<g>
							<rect x="315.113" y="215.335" fill="#1A1A1A" width="3" height="4.857"/>
						</g>
						<g>
							<rect x="323.569" y="215.335" fill="#1A1A1A" width="3" height="4.857"/>
						</g>
						<g>
							<rect x="332.025" y="215.335" fill="#1A1A1A" width="3" height="4.857"/>
						</g>
						<g>
							<rect x="340.481" y="215.335" fill="#1A1A1A" width="3" height="4.857"/>
						</g>
					</g>
				</g>
				<g>
					<g>
						<rect x="315.113" y="234.242" fill="#1A1A1A" width="3" height="6.23"/>
					</g>
					<g>
						<rect x="323.569" y="234.242" fill="#1A1A1A" width="3" height="6.23"/>
					</g>
					<g>
						<rect x="332.025" y="234.242" fill="#1A1A1A" width="3" height="6.23"/>
					</g>
					<g>
						<rect x="340.481" y="234.242" fill="#1A1A1A" width="3" height="6.23"/>
					</g>
				</g>
				<g>
					<g>
						<rect x="315.113" y="246.259" fill="#1A1A1A" width="3" height="6.229"/>
					</g>
					<g>
						<rect x="323.569" y="246.259" fill="#1A1A1A" width="3" height="6.229"/>
					</g>
					<g>
						<rect x="332.025" y="246.259" fill="#1A1A1A" width="3" height="6.229"/>
					</g>
					<g>
						<rect x="340.481" y="246.259" fill="#1A1A1A" width="3" height="6.229"/>
					</g>
				</g>
				<g>
					<g>
						<rect x="315.113" y="258.275" fill="#1A1A1A" width="3" height="6.23"/>
					</g>
					<g>
						<rect x="323.569" y="258.275" fill="#1A1A1A" width="3" height="6.23"/>
					</g>
					<g>
						<rect x="332.025" y="258.275" fill="#1A1A1A" width="3" height="6.23"/>
					</g>
					<g>
						<rect x="340.481" y="258.275" fill="#1A1A1A" width="3" height="6.23"/>
					</g>
				</g>
				<g>
					<g>
						<rect x="315.113" y="270.292" fill="#1A1A1A" width="3" height="6.229"/>
					</g>
					<g>
						<rect x="323.569" y="270.292" fill="#1A1A1A" width="3" height="6.229"/>
					</g>
					<g>
						<rect x="332.025" y="270.292" fill="#1A1A1A" width="3" height="6.229"/>
					</g>
					<g>
						<rect x="340.481" y="270.292" fill="#1A1A1A" width="3" height="6.229"/>
					</g>
				</g>
				<g>
					<g>
						<rect x="315.113" y="282.308" fill="#1A1A1A" width="3" height="6.23"/>
					</g>
					<g>
						<rect x="323.569" y="282.308" fill="#1A1A1A" width="3" height="6.23"/>
					</g>
					<g>
						<rect x="332.025" y="282.308" fill="#1A1A1A" width="3" height="6.23"/>
					</g>
					<g>
						<rect x="340.481" y="282.308" fill="#1A1A1A" width="3" height="6.23"/>
					</g>
				</g>
				<g>
					<g>
						<rect x="315.113" y="294.324" fill="#1A1A1A" width="3" height="6.23"/>
					</g>
					<g>
						<rect x="323.569" y="294.324" fill="#1A1A1A" width="3" height="6.23"/>
					</g>
					<g>
						<rect x="332.025" y="294.324" fill="#1A1A1A" width="3" height="6.23"/>
					</g>
					<g>
						<rect x="340.481" y="294.324" fill="#1A1A1A" width="3" height="6.23"/>
					</g>
				</g>
			</g>
			<g>
				<rect x="304.179" y="200.14" fill="#1A1A1A" width="50.235" height="3"/>
			</g>
			<g>
				<rect x="304.179" y="223.373" fill="#1A1A1A" width="50.235" height="3"/>
			</g>
		</g>
		<g>
			<polygon fill="#8CC63F" points="541.998,301.878 520.275,301.878 530.644,273.513 			"/>
			<g>
				<path fill="#1A1A1A" d="M544.213,303.378h-26.084l12.451-34.061L544.213,303.378z M522.42,300.378h17.361l-9.074-22.67
					L522.42,300.378z"/>
			</g>
			<polygon id="XMLID_1_" fill="#39B54A" points="541.998,292.238 520.275,292.238 530.644,263.875 			"/>
			<g>
				<path fill="#1A1A1A" d="M544.213,293.738h-26.084l12.451-34.059L544.213,293.738z M522.42,290.738h17.361l-9.074-22.668
					L522.42,290.738z"/>
			</g>
			<g>
				<rect x="529.638" y="301.878" fill="#1A1A1A" width="3" height="8.256"/>
			</g>
		</g>
		<g>
			<rect x="416.561" y="48.904" fill="#1A1A1A" width="106.054" height="3"/>
		</g>
		<g>
			<rect x="469.588" y="66.904" fill="#1A1A1A" width="30.752" height="3"/>
		</g>
		<g>
			<rect x="511.674" y="66.904" fill="#1A1A1A" width="21.607" height="3"/>
		</g>
		<g>
			<rect x="518.275" y="103.301" fill="#1A1A1A" width="75.488" height="3"/>
		</g>
		<g>
			<rect x="488.638" y="121.677" fill="#1A1A1A" width="49.977" height="3"/>
		</g>
		<g>
			<rect x="428.816" y="94.325" fill="#1A1A1A" width="43.215" height="3"/>
		</g>
		<g>
			<rect x="207.449" y="78.589" fill="#1A1A1A" width="80.955" height="3"/>
		</g>
		<g>
			<rect x="315.326" y="33.571" fill="#1A1A1A" width="63.961" height="3"/>
		</g>
		<g>
			<rect x="216.422" y="139.918" fill="#1A1A1A" width="80.758" height="3"/>
		</g>
		<g>
			<rect x="244.52" y="103.3" fill="#1A1A1A" width="63.762" height="3"/>
		</g>
		<g>
			<g>
				<g>
					<g>
						<g>
							<g>
								<g>
									<path fill="#1A1A1A" d="M583.828,213.681c-0.199-0.564-0.293-1.16-0.285-1.771c-0.553-2.576-1.842-5.133-4.775-6.02
										c0.018,1.1,0.02,2.197,0.016,3.297c1.758,1.184,2.193,3.967,2.193,7.873c0,1.295-0.543,2.758-1.383,3.893
										c0.428,0.734,0.693,1.572,0.688,2.469c-0.002,0.412-0.039,0.801-0.105,1.176c2.289-1.697,3.801-4.768,3.801-7.537
										C583.976,216.22,583.97,215.005,583.828,213.681z"/>
								</g>
								<path fill="#00A99D" d="M578.773,206.929c0.014,1.502,0.008,3.006-0.01,4.512c2.967,0.504,3.713,2.045,3.713,2.045
									l0.73-5.158C583.207,208.328,581.332,207.363,578.773,206.929z"/>
								<g>
									<path fill="#1A1A1A" d="M583.902,206.998c-0.111-0.057-2.254-1.156-5.148-1.598c0.02,1.018,0.027,2.037,0.027,3.057
										c1.133,0.213,2.115,0.527,2.781,0.787l-0.201,1.422c-0.676-0.316-1.533-0.582-2.582-0.738
										c-0.008,1.012-0.018,2.025-0.031,3.039c1.736,0.354,2.324,1.105,2.396,1.211l2.119,4.443l0.658-4.65
										c-0.605-1.41-0.492-3.09,0.201-4.623c-0.424,0.938-0.102-0.035,0.047-0.557c0.025-0.258,0.082-0.736,0.084-0.801
										c0.014-0.266,0.016-0.529,0.023-0.795L583.902,206.998z"/>
								</g>
							</g>
							
								<rect x="584.056" y="230.526" transform="matrix(0.8888 0.4583 -0.4583 0.8888 175.4605 -244.2361)" fill="#FFFFFF" width="13.897" height="17.823"/>
							<g>
								<path fill="#1A1A1A" d="M582.765,243.527l9.686,4.994l6.793-13.176l-9.686-4.994L582.765,243.527z"/>
							</g>
							<g>
								<path fill="#1A1A1A" d="M565.568,271.259l-0.895-2.863l0.447,1.432l-0.527-1.404c0.037-0.016,0.951-0.41,4.234-2.775
									l1.754,2.434C568.076,269.888,566.248,271.046,565.568,271.259z"/>
							</g>
							<g>
								
									<rect x="589.278" y="233.387" transform="matrix(0.8901 0.4557 -0.4557 0.8901 172.2504 -244.7296)" fill="#1A1A1A" width="8.847" height="3"/>
							</g>
							<g>
								
									<rect x="586.772" y="237.919" transform="matrix(0.8915 0.4531 -0.4531 0.8915 172.6281 -241.8006)" fill="#1A1A1A" width="8.483" height="3"/>
							</g>
							<g>
								
									<rect x="584.432" y="242.481" transform="matrix(0.886 0.4636 -0.4636 0.886 180.2394 -245.2593)" fill="#1A1A1A" width="9.1" height="3"/>
							</g>
						</g>
					</g>
				</g>
			</g>
			<g>
				
					<rect x="580.333" y="202.472" transform="matrix(0.9291 0.3698 -0.3698 0.9291 117.076 -200.6363)" fill="#1A1A1A" width="3" height="5.13"/>
			</g>
			<g>
				<path fill="#1A1A1A" d="M583.855,210.074c0.08-0.244,0.16-0.488,0.268-0.727c-0.424,0.938-0.102-0.035,0.047-0.557
					c0.025-0.258,0.082-0.736,0.084-0.801c0.021-0.43,0.031-0.859,0.039-1.291l-1.619,0.615l1.064,2.805L583.855,210.074z"/>
			</g>
		</g>
		<g>
			<rect x="267.014" y="54.335" fill="#1A1A1A" width="19.521" height="3"/>
		</g>
		<g>
			<rect x="292.518" y="54.335" fill="#1A1A1A" width="11.555" height="3"/>
		</g>
		<g>
			<rect x="441.115" y="137.747" fill="#1A1A1A" width="9.309" height="3"/>
		</g>
		<g>
			<rect x="458.734" y="137.747" fill="#1A1A1A" width="23.814" height="3"/>
		</g>
		<g>
			<rect x="570.207" y="89.404" fill="#1A1A1A" width="11.807" height="3"/>
		</g>
		<g>
			<rect x="304.179" y="119.922" fill="#1A1A1A" width="14.013" height="3"/>
		</g>
		<g>
			<rect x="570.207" y="66.904" fill="#1A1A1A" width="35.074" height="3"/>
		</g>
	</g>
	<line fill="none" stroke="#1A1A1A" stroke-width="3" stroke-miterlimit="10" x1="243.93" y1="210.21" x2="243.93" y2="236.904"/>
</g>
<g id="Layer_1">
	<g id="Layer_1_1_">
	</g>
	<g id="Layer_2">
		<g>
			<g>
				<circle cx="524.767" cy="268.706" r="5.855"/>
				<g>
					<path d="M624.708,483.658c-27.995,0-68.709-2.998-103.672-17.275c-38.178-15.59-60.575-40.869-66.575-75.137
						c-6.798-38.83,1-66.992,14.797-97.333c10.104-22.213,37.983-73.316,80.487-73.316c0.326,0,0.658,0.004,0.984,0.01
						c0.439-0.18,0.928-0.254,1.436-0.182c20.535,2.756,37.492,6.213,53.232,23.143c13.033,14.02,21.197,30.263,25.688,51.119
						c3.39,15.74,0.89,32.604-1.53,48.912c-2.871,19.369-5.584,37.666,0.752,54.035c11.004,28.424,47.832,52.516,78.715,51.523
						c1.24-0.051,2.361,0.74,2.758,1.918c0.396,1.178-0.026,2.477-1.043,3.191C680.833,475.417,656.715,483.658,624.708,483.658z
						 M549.751,226.227c-39.243,0-65.723,48.807-75.368,70.018c-13.746,30.227-20.947,56.499-14.375,94.029
						c5.643,32.233,26.893,56.087,63.155,70.896c34.119,13.934,74.054,16.857,101.545,16.857c28.188,0,50.054-6.693,75.754-23.562
						c-30.94-3.146-64.657-27.033-75.403-54.799c-6.875-17.756-3.926-37.65-1.072-56.892c2.346-15.812,4.771-32.162,1.596-46.902
						c-4.268-19.824-11.993-35.224-24.309-48.47c-14.281-15.362-29.355-18.61-48.969-21.278c-0.3,0.096-0.621,0.145-0.949,0.131
						C550.819,226.237,550.282,226.227,549.751,226.227z"/>
				</g>
				<g>
					<path d="M520.261,463.839c-0.498,0-1-0.131-1.455-0.408c-1.33-0.805-1.756-2.533-0.951-3.863
						c10.41-17.203,10.014-50.193,5.004-75.259c-7.695-38.483-24.971-63.694-54.361-79.338c-1.372-0.729-1.893-2.437-1.161-3.808
						c0.729-1.373,2.436-1.895,3.807-1.164c30.998,16.498,49.186,42.937,57.236,83.205c5.225,26.131,5.485,60.779-5.707,79.275
						C522.142,463.357,521.213,463.839,520.261,463.839z"/>
				</g>
				<g>
					<path d="M624.435,416.162c-0.021,0-0.047,0-0.07,0c-24.672-0.623-57.276-8.189-74.789-27.562
						c-9.235-10.218-13.375-22.591-12.303-36.783c0.117-1.551,1.463-2.713,3.021-2.596c1.551,0.116,2.713,1.471,2.596,3.021
						c-0.953,12.592,2.703,23.555,10.863,32.58c15.016,16.609,42.401,23.918,64.991,25.441c-0.44-0.607-0.883-1.213-1.323-1.816
						c-15.205-20.83-29.564-40.508-13.164-71.256c0.731-1.373,2.438-1.887,3.809-1.158c1.371,0.732,1.891,2.437,1.16,3.809
						c-14.74,27.632-2.004,45.082,12.742,65.287c1.586,2.172,3.186,4.361,4.766,6.588c0.615,0.867,0.689,2.014,0.189,2.951
						C626.429,415.587,625.474,416.162,624.435,416.162z"/>
				</g>
				<g>
					<path d="M471.315,303.576c-0.289,0-0.582-0.045-0.871-0.142c-15.367-5-37.622-24.667-35.704-40.548
						c0.097-0.791,0.523-1.504,1.175-1.963c14.97-10.531,31.568-7.889,38.009-6.266c8.354,2.107,15.098,6.154,17.176,10.31
						c0.692,1.391,0.131,3.082-1.26,3.777c-1.392,0.693-3.08,0.131-3.777-1.26c-1.098-2.197-6.207-5.525-13.514-7.369
						c-5.533-1.395-19.523-3.65-32.298,4.669c-0.17,12.489,18.992,29.082,31.937,33.297c1.479,0.48,2.287,2.07,1.805,3.547
						C473.604,302.817,472.504,303.576,471.315,303.576z"/>
				</g>
				<g>
					<path d="M478.823,284.056c-0.26,0-0.522-0.037-0.787-0.113c-2.555-0.743-5.188-1.364-7.979-2.022
						c-10.539-2.484-22.484-5.303-33.704-15.899c-1.131-1.068-1.182-2.85-0.113-3.98c1.066-1.131,2.851-1.18,3.979-0.113
						c10.119,9.558,20.801,12.076,31.131,14.514c2.861,0.674,5.562,1.312,8.256,2.094c1.494,0.434,2.354,1.994,1.92,3.488
						C481.17,283.257,480.045,284.056,478.823,284.056z"/>
				</g>
				<g>
					<path d="M514.854,515.183c-0.531,0-1.068-0.146-1.545-0.463c-1.299-0.854-1.658-2.602-0.803-3.898
						c2.561-3.889,5.996-6.562,9.317-9.15c2.623-2.045,5.105-3.979,6.73-6.254c2.143-2.996,3.838-7.654,5.479-12.156
						c2.013-5.521,3.912-10.738,6.818-13.475c1.131-1.064,2.912-1.012,3.979,0.119c1.067,1.131,1.013,2.912-0.118,3.979
						c-1.937,1.822-3.689,6.643-5.39,11.305c-1.77,4.857-3.6,9.881-6.188,13.502c-2.103,2.941-5.025,5.219-7.853,7.422
						c-2.963,2.307-6.024,4.691-8.076,7.807C516.667,514.742,515.769,515.183,514.854,515.183z"/>
				</g>
				<g>
					<path d="M528.372,524.195c-0.198,0-0.401-0.021-0.604-0.066c-1.521-0.334-2.48-1.834-2.148-3.352
						c0.691-3.145,0.687-6.529,0.685-10.113c-0.006-4.182-0.01-8.506,1.164-12.582c0.43-1.494,1.99-2.355,3.481-1.928
						c1.494,0.432,2.357,1.988,1.927,3.482c-0.951,3.312-0.947,7.057-0.943,11.021c0.004,3.729,0.008,7.584-0.811,11.32
						C530.831,523.296,529.665,524.195,528.372,524.195z"/>
				</g>
				<g>
					<path d="M559.897,516.085c-0.271,0-0.547-0.039-0.82-0.123c-11.203-3.412-21.35-11.189-28.008-16.746
						c-1.193-0.996-1.354-2.77-0.356-3.965c0.997-1.193,2.771-1.352,3.965-0.359c6.28,5.242,15.813,12.568,26.041,15.686
						c1.485,0.453,2.323,2.025,1.873,3.514C562.22,515.304,561.104,516.085,559.897,516.085z"/>
				</g>
				<g>
					<path d="M578.04,531.281c-0.127,0-0.256-0.012-0.387-0.027c-1.539-0.211-2.615-1.631-2.406-3.17
						c0.634-4.613,2.576-8.51,4.455-12.275c1.486-2.98,2.892-5.793,3.375-8.549c0.64-3.625,0.158-8.559-0.307-13.33
						c-0.568-5.85-1.105-11.373,0.334-15.096c0.561-1.451,2.191-2.172,3.641-1.611c1.451,0.561,2.172,2.191,1.611,3.641
						c-0.959,2.477-0.461,7.584,0.02,12.521c0.5,5.146,1.019,10.469,0.246,14.852c-0.627,3.561-2.28,6.877-3.881,10.084
						c-1.676,3.359-3.41,6.834-3.916,10.527C580.633,530.257,579.427,531.281,578.04,531.281z"/>
				</g>
				<g>
					<path d="M594.112,533.576c-1.279,0-2.434-0.875-2.738-2.174c-0.735-3.131-2.198-6.184-3.75-9.412
						c-1.811-3.773-3.682-7.672-4.381-11.857c-0.258-1.533,0.777-2.982,2.312-3.24c1.539-0.254,2.983,0.779,3.242,2.311
						c0.567,3.398,2.188,6.775,3.903,10.352c1.611,3.359,3.279,6.834,4.154,10.562c0.355,1.512-0.582,3.027-2.098,3.383
						C594.54,533.548,594.325,533.576,594.112,533.576z"/>
				</g>
				<g>
					<path d="M611.431,513.197c-9.053,0-17.969-1.945-24.445-3.594c-1.508-0.383-2.418-1.916-2.035-3.422
						c0.386-1.508,1.914-2.42,3.425-2.035c7.926,2.018,19.688,4.512,30.258,2.908c1.533-0.242,2.973,0.824,3.205,2.361
						c0.233,1.535-0.822,2.971-2.361,3.203C616.823,513.021,614.118,513.197,611.431,513.197z"/>
				</g>
			</g>
			<path fill="none" d="M135.512,35.516v537.067h597.87V35.516H135.512z"/>
		</g>
		<g id="Layer_3">
			<g enable-background="new    ">
				<path fill="#48535B" d="M226.5,384.901c-5.6,8.101-13.1,14.501-22.5,19.001c-5,2.398-9.7,3.898-14.1,4.5
					c-4.5,0.6-9.2,0.898-14.102,0.898H150l-7.6,39.102H113.3l27.802-143.201H192c3.5,0,6.8,0.102,10,0.2s6.2,0.5,9.102,1.101
					c2.898,0.6,5.698,1.5,8.398,2.699c2.7,1.2,5.2,2.899,7.7,5c5.9,5.399,9.5,12.102,10.8,20c1.3,7.899,1.102,16.102-0.6,24.7
					C235.7,368.1,232,376.8,226.5,384.901z M205.4,335.401c-3.5-5.301-10-7.899-19.5-7.899h-20L154.3,387.1h17.802
					c10.3,0,18.398-2.601,24.198-7.699c5.9-5.101,9.802-12.7,11.7-22.601C209.9,347.701,209,340.6,205.4,335.401z"/>
				<path fill="#48535B" d="M309.7,409.201l11.5-59.101c0.801-4.101,1.301-7.601,1.4-10.5c0.1-2.8-0.301-5.199-1.4-7
					c-1-1.8-2.8-3.199-5.399-3.899c-2.601-0.8-6.199-1.199-10.899-1.199h-23.5l-15.9,81.801h-29.199l27.801-142.5h29.1l-7.5,38.399
					h29.801c7.199,0,13.5,0.602,18.699,1.899c5.2,1.301,9.301,3.399,12.4,6.399c3,3,5,7,5.8,12.101s0.5,11.399-1,18.899
					l-12.601,64.701H309.7L309.7,409.201z"/>
			</g>
			<g enable-background="new    ">
				<path fill="#48535B" d="M455.9,384.901c-5.6,8.101-13.1,14.501-22.5,19.001c-5,2.398-9.7,3.898-14.101,4.5
					c-4.5,0.6-9.199,0.898-14.101,0.898h-25.7l-7.6,39.102h-29.099L370.601,305.3h50.899c3.5,0,6.801,0.101,10,0.199
					c3.199,0.101,6.199,0.5,9.101,1.101c2.899,0.601,5.7,1.5,8.399,2.7c2.699,1.199,5.199,2.9,7.699,5c5.9,5.4,9.5,12.101,10.801,20
					c1.301,7.9,1.101,16.101-0.601,24.699C465.101,368.1,461.4,376.8,455.9,384.901z M434.802,335.401
					c-3.5-5.301-10-7.899-19.501-7.899h-20l-11.601,59.6h17.8c10.301,0,18.4-2.6,24.2-7.699c5.9-5.1,9.8-12.699,11.7-22.6
					C439.302,347.701,438.4,340.6,434.802,335.401z"/>
			</g>
			<path fill="#00ADEE" d="M657.601,395.701c-1.4,7.398-8.7,13.5-16.1,13.5H479.9c-7.398,0-12.3-6-10.8-13.5l15-77.101
				c1.4-7.399,8.6-13.5,16.1-13.5h161.7c7.4,0,12.3,6,10.9,13.5L657.601,395.701z"/>
			<path fill="#FFFFFF" d="M526.802,383.6c-3.4,0-6.4-0.3-9-0.899c-2.602-0.601-5.102-2-7.4-4.101c-3-2.699-4.8-5.899-5.5-9.8
				c-0.7-3.801-0.6-7.899,0.3-12.301c0.4-2,1-4.1,1.801-6.199s1.801-4.2,3-6.1c1.199-1.9,2.601-3.701,4.199-5.4
				c1.602-1.7,3.4-3.1,5.4-4.301c2.6-1.6,5.3-2.6,8.1-3.1s5.602-0.699,8.3-0.699h20L553.802,342H534.7c-3.6,0-6.398,0.601-8.398,1.9
				c-2,1.301-3.4,3.801-4.4,7.5h30.102l-2.2,11.301H519.7c-0.3,2-0.199,3.699,0.2,4.898c0.4,1.301,1.102,2.201,2,2.9
				c1,0.699,2.2,1.1,3.602,1.399c1.398,0.199,3,0.3,4.898,0.3h17.5l-2.2,11.301L526.802,383.6L526.802,383.6z"/>
			<path fill="#FFFFFF" d="M615.802,383.6l6.1-31.399c0.3-1.601,0.5-3,0.602-4.3c0.1-1.301-0.102-2.301-0.602-3.2
				c-0.398-0.898-1.2-1.5-2.2-2s-2.5-0.699-4.3-0.699h-7.6l-8.102,41.6h-14.3l8.102-41.6H578.2l-8.1,41.6h-14.3l10.3-52.898h52.4
				c1.5,0,3,0,4.6,0.101c1.5,0.1,3,0.299,4.5,0.5c1.4,0.299,2.8,0.799,4,1.5c1.2,0.698,2.3,1.6,3.1,2.799
				c1.301,1.899,2.102,4.101,2.301,6.701c0.199,2.6,0.101,5.1-0.399,7.698l-6.5,33.701L615.802,383.6L615.802,383.6z"/>
			<line fill="none" x1="79.4" y1="142.901" x2="79.4" y2="551.8"/>
			<line fill="none" x1="690.7" y1="551.8" x2="690.7" y2="142.901"/>
			<line fill="none" x1="79.4" y1="551.8" x2="79.4" y2="142.101"/>
			<line opacity="0.4" fill="none" x1="690.7" y1="142.101" x2="690.7" y2="551.8"/>
			
				<text transform="matrix(0.9848 0 -0.1736 0.9848 137.8914 527.8784)" opacity="0.4" enable-background="new    " font-family="'KohinoorDevanagari-Book'" font-size="48.7405">Clicky bird </text>
			
				<text transform="matrix(0.9848 0 -0.1736 0.9848 137.8914 527.8784)" opacity="0.4" fill="none" stroke="#000000" stroke-width="5" stroke-miterlimit="10" enable-background="new    " font-family="'KohinoorDevanagari-Book'" font-size="48.7405">Clicky bird </text>
		</g>
	</g>
	<text transform="matrix(1 0 0 1 248.4451 571.1401)" font-family="'MyriadPro-Regular'" font-size="12">A HACKATHON GAME FOR PHPNW15 from members of PHPEM  @phpem </text>
</g>
</svg>
