<?xml version="1.0" encoding="utf-8"?>
<!-- Generator: Adobe Illustrator 16.0.0, SVG Export Plug-In . SVG Version: 6.00 Build 0)  -->
<!DOCTYPE svg PUBLIC "-//W3C//DTD SVG 1.1//EN" "http://www.w3.org/Graphics/SVG/1.1/DTD/svg11.dtd">
<svg version="1.1" xmlns="http://www.w3.org/2000/svg" xmlns:xlink="http://www.w3.org/1999/xlink" x="0px" y="0px"
	 width="841.89px" height="595.28px" viewBox="0 0 841.89 595.28" enable-background="new 0 0 841.89 595.28" xml:space="preserve">
<g id="Layer_1">
</g>
<g id="Layer_2">
	<g>
		<g>
			<circle cx="524.767" cy="268.706" r="5.855"/>
			<g>
				<path d="M624.708,483.657c-27.996,0-68.709-2.998-103.672-17.275c-38.178-15.59-60.576-40.869-66.576-75.137
					c-6.797-38.83,1-66.992,14.797-97.332c10.104-22.213,37.984-73.316,80.488-73.316c0.326,0,0.658,0.004,0.984,0.01
					c0.439-0.18,0.928-0.254,1.436-0.182c20.535,2.756,37.492,6.213,53.232,23.143c13.033,14.02,21.197,30.263,25.688,51.119
					c3.389,15.74,0.889,32.604-1.531,48.912c-2.871,19.369-5.584,37.666,0.752,54.035c11.004,28.424,47.832,52.516,78.715,51.523
					c1.24-0.051,2.361,0.74,2.758,1.918c0.395,1.178-0.027,2.477-1.043,3.193C680.833,475.417,656.714,483.657,624.708,483.657z
					 M549.751,226.227c-39.244,0-65.723,48.807-75.369,70.018c-13.746,30.227-20.947,56.498-14.375,94.029
					c5.643,32.234,26.893,56.086,63.156,70.895c34.119,13.934,74.053,16.857,101.545,16.857c28.188,0,50.053-6.693,75.754-23.562
					c-30.941-3.146-64.658-27.033-75.404-54.799c-6.875-17.756-3.926-37.65-1.072-56.891c2.346-15.812,4.77-32.162,1.596-46.902
					c-4.268-19.824-11.994-35.224-24.309-48.47c-14.281-15.362-29.355-18.61-48.969-21.278c-0.299,0.096-0.621,0.145-0.949,0.131
					C550.819,226.237,550.282,226.227,549.751,226.227z"/>
			</g>
			<g>
				<path d="M520.261,463.84c-0.498,0-1-0.131-1.455-0.408c-1.33-0.805-1.756-2.535-0.951-3.865
					c10.41-17.203,10.014-50.193,5.004-75.258c-7.695-38.484-24.971-63.695-54.361-79.338c-1.373-0.73-1.893-2.436-1.162-3.807
					c0.729-1.373,2.436-1.895,3.807-1.164c30.998,16.498,49.186,42.936,57.236,83.205c5.225,26.131,5.486,60.779-5.707,79.275
					C522.142,463.356,521.212,463.84,520.261,463.84z"/>
			</g>
			<g>
				<path d="M624.435,416.161c-0.021,0-0.047,0-0.07,0c-24.672-0.623-57.277-8.189-74.789-27.561
					c-9.236-10.217-13.375-22.59-12.303-36.783c0.117-1.551,1.463-2.713,3.02-2.596c1.551,0.117,2.713,1.471,2.596,3.021
					c-0.953,12.592,2.703,23.555,10.863,32.58c15.016,16.609,42.402,23.918,64.992,25.441c-0.441-0.607-0.883-1.213-1.324-1.816
					c-15.205-20.83-29.564-40.508-13.164-71.256c0.732-1.373,2.438-1.887,3.809-1.158c1.371,0.732,1.891,2.436,1.16,3.809
					c-14.74,27.631-2.004,45.082,12.742,65.287c1.586,2.172,3.186,4.361,4.766,6.588c0.615,0.867,0.689,2.012,0.189,2.951
					C626.429,415.588,625.474,416.161,624.435,416.161z"/>
			</g>
			<g>
				<path d="M471.315,303.575c-0.289,0-0.582-0.045-0.871-0.141c-15.367-5-37.622-24.667-35.704-40.548
					c0.096-0.791,0.523-1.504,1.175-1.963c14.969-10.531,31.568-7.889,38.008-6.266c8.355,2.107,15.098,6.154,17.176,10.31
					c0.693,1.391,0.131,3.082-1.26,3.777c-1.391,0.693-3.08,0.131-3.777-1.26c-1.098-2.197-6.207-5.525-13.514-7.369
					c-5.533-1.395-19.523-3.65-32.297,4.669c-0.17,12.489,18.992,29.082,31.936,33.297c1.479,0.48,2.287,2.07,1.805,3.547
					C473.604,302.817,472.503,303.575,471.315,303.575z"/>
			</g>
			<g>
				<path d="M478.823,284.056c-0.26,0-0.523-0.037-0.787-0.113c-2.555-0.743-5.189-1.364-7.979-2.022
					c-10.539-2.484-22.484-5.303-33.704-15.899c-1.131-1.068-1.182-2.85-0.113-3.98c1.066-1.131,2.85-1.18,3.979-0.113
					c10.119,9.558,20.801,12.076,31.131,14.514c2.861,0.674,5.562,1.312,8.256,2.094c1.494,0.434,2.354,1.994,1.92,3.488
					C481.169,283.257,480.044,284.056,478.823,284.056z"/>
			</g>
			<g>
				<path d="M514.854,515.184c-0.531,0-1.068-0.148-1.545-0.463c-1.299-0.855-1.658-2.602-0.803-3.9
					c2.561-3.887,5.996-6.562,9.318-9.15c2.623-2.045,5.105-3.979,6.73-6.254c2.143-2.996,3.838-7.654,5.479-12.156
					c2.012-5.521,3.912-10.738,6.818-13.475c1.131-1.064,2.912-1.012,3.979,0.119s1.012,2.912-0.119,3.979
					c-1.936,1.822-3.689,6.643-5.389,11.305c-1.77,4.857-3.6,9.881-6.188,13.502c-2.102,2.941-5.025,5.219-7.852,7.422
					c-2.963,2.307-6.025,4.691-8.076,7.807C516.667,514.741,515.769,515.184,514.854,515.184z"/>
			</g>
			<g>
				<path d="M528.372,524.194c-0.199,0-0.402-0.021-0.605-0.066c-1.52-0.334-2.48-1.834-2.148-3.352
					c0.691-3.143,0.686-6.529,0.684-10.113c-0.006-4.182-0.01-8.506,1.164-12.582c0.43-1.494,1.99-2.355,3.482-1.928
					c1.494,0.432,2.357,1.99,1.926,3.484c-0.951,3.311-0.947,7.055-0.943,11.02c0.004,3.729,0.008,7.584-0.811,11.322
					C530.831,523.297,529.665,524.194,528.372,524.194z"/>
			</g>
			<g>
				<path d="M559.897,516.086c-0.271,0-0.547-0.039-0.82-0.123c-11.203-3.412-21.35-11.191-28.008-16.746
					c-1.193-0.996-1.354-2.771-0.357-3.965c0.998-1.193,2.771-1.352,3.965-0.359c6.281,5.242,15.814,12.568,26.041,15.684
					c1.486,0.453,2.324,2.027,1.873,3.514C562.22,515.305,561.104,516.086,559.897,516.086z"/>
			</g>
			<g>
				<path d="M578.04,531.28c-0.127,0-0.256-0.01-0.387-0.027c-1.539-0.211-2.615-1.631-2.406-3.17
					c0.633-4.613,2.576-8.51,4.455-12.275c1.486-2.98,2.891-5.793,3.375-8.549c0.639-3.625,0.158-8.559-0.307-13.33
					c-0.568-5.85-1.105-11.373,0.334-15.096c0.561-1.451,2.191-2.172,3.641-1.611c1.451,0.561,2.172,2.191,1.611,3.641
					c-0.959,2.477-0.461,7.584,0.02,12.521c0.5,5.146,1.018,10.469,0.246,14.852c-0.627,3.561-2.281,6.877-3.881,10.084
					c-1.676,3.359-3.41,6.834-3.916,10.527C580.632,530.258,579.427,531.28,578.04,531.28z"/>
			</g>
			<g>
				<path d="M594.112,533.575c-1.279,0-2.434-0.875-2.738-2.174c-0.736-3.129-2.199-6.182-3.75-9.412
					c-1.811-3.773-3.682-7.672-4.381-11.857c-0.258-1.533,0.777-2.982,2.311-3.24c1.539-0.254,2.984,0.779,3.242,2.311
					c0.568,3.398,2.189,6.775,3.904,10.352c1.611,3.359,3.279,6.834,4.154,10.562c0.355,1.512-0.582,3.027-2.098,3.383
					C594.54,533.549,594.325,533.575,594.112,533.575z"/>
			</g>
			<g>
				<path d="M611.431,513.196c-9.053,0-17.969-1.945-24.445-3.592c-1.508-0.383-2.418-1.916-2.035-3.422
					c0.385-1.508,1.914-2.42,3.424-2.035c7.926,2.016,19.688,4.51,30.258,2.908c1.533-0.242,2.973,0.824,3.205,2.361
					c0.234,1.535-0.822,2.971-2.361,3.203C616.823,513.022,614.118,513.196,611.431,513.196z"/>
			</g>
		</g>
		<path fill="none" d="M135.512,35.516v537.068h597.87V35.516H135.512z"/>
	</g>
	<g id="Layer_3">
		<g enable-background="new    ">
			<path fill="#48535B" d="M226.5,384.901c-5.6,8.1-13.1,14.5-22.5,19c-5,2.4-9.7,3.9-14.1,4.5c-4.5,0.6-9.2,0.9-14.101,0.9H150
				l-7.6,39.1H113.3l27.801-143.2H192c3.5,0,6.8,0.101,10,0.2s6.2,0.5,9.101,1.1c2.899,0.6,5.699,1.5,8.399,2.7s5.2,2.899,7.7,5
				c5.9,5.399,9.5,12.101,10.8,20s1.101,16.101-0.6,24.7C235.7,368.1,232,376.801,226.5,384.901z M205.4,335.401
				c-3.5-5.301-10-7.9-19.5-7.9h-20L154.3,387.1h17.801c10.3,0,18.399-2.6,24.199-7.699c5.9-5.1,9.801-12.7,11.7-22.6
				C209.9,347.701,209,340.6,205.4,335.401z"/>
			<path fill="#48535B" d="M309.7,409.201l11.5-59.101c0.8-4.1,1.3-7.6,1.4-10.5c0.1-2.799-0.301-5.199-1.4-7
				c-1-1.799-2.8-3.199-5.4-3.899c-2.6-0.8-6.199-1.2-10.899-1.2h-23.5l-15.9,81.801h-29.2l27.801-142.5h29.1l-7.5,38.399h29.8
				c7.2,0,13.5,0.601,18.7,1.899c5.2,1.301,9.3,3.4,12.4,6.4c3,3,5,7,5.8,12.1c0.8,5.101,0.5,11.4-1,18.9l-12.601,64.7H309.7z"/>
		</g>
		<g enable-background="new    ">
			<path fill="#48535B" d="M455.9,384.901c-5.6,8.1-13.1,14.5-22.5,19c-5,2.4-9.7,3.9-14.101,4.5c-4.5,0.6-9.199,0.9-14.1,0.9h-25.7
				l-7.6,39.1H342.8l27.801-143.1H421.5c3.5,0,6.801,0.1,10,0.199c3.2,0.1,6.2,0.5,9.101,1.1c2.899,0.601,5.7,1.5,8.399,2.701
				c2.7,1.199,5.2,2.899,7.7,5c5.9,5.399,9.5,12.1,10.8,20c1.301,7.899,1.101,16.1-0.6,24.699
				C465.101,368.1,461.4,376.801,455.9,384.901z M434.801,335.401c-3.5-5.301-10-7.9-19.501-7.9h-20l-11.6,59.6h17.8
				c10.3,0,18.4-2.6,24.2-7.699c5.9-5.1,9.8-12.7,11.7-22.6C439.301,347.701,438.4,340.6,434.801,335.401z"/>
		</g>
		<path fill="#00ADEE" d="M657.601,395.701c-1.4,7.399-8.7,13.5-16.1,13.5H479.9c-7.399,0-12.3-6-10.8-13.5l15-77.101
			c1.4-7.399,8.6-13.5,16.1-13.5h161.7c7.4,0,12.3,6,10.9,13.5L657.601,395.701z"/>
		<path fill="#FFFFFF" d="M526.801,383.6c-3.4,0-6.4-0.299-9-0.899c-2.601-0.601-5.101-2-7.4-4.101c-3-2.699-4.8-5.899-5.5-9.799
			c-0.7-3.801-0.6-7.9,0.3-12.301c0.4-2,1-4.1,1.8-6.199c0.801-2.101,1.801-4.201,3-6.101c1.2-1.899,2.601-3.7,4.2-5.399
			c1.601-1.701,3.4-3.101,5.4-4.301c2.6-1.6,5.3-2.6,8.1-3.1s5.601-0.7,8.3-0.7h20l-2.199,11.3H534.7c-3.6,0-6.399,0.6-8.399,1.9
			c-2,1.3-3.4,3.8-4.4,7.5h30.101l-2.2,11.3H519.7c-0.3,2-0.2,3.7,0.2,4.899c0.4,1.301,1.101,2.201,2,2.9c1,0.7,2.2,1.1,3.601,1.4
			c1.399,0.199,3,0.3,4.899,0.3h17.5l-2.2,11.3L526.801,383.6L526.801,383.6z"/>
		<path fill="#FFFFFF" d="M615.801,383.6l6.1-31.399c0.3-1.601,0.5-3,0.601-4.3c0.1-1.301-0.101-2.301-0.601-3.2
			c-0.399-0.899-1.2-1.5-2.2-2s-2.5-0.7-4.3-0.7h-7.6l-8.101,41.6h-14.3l8.101-41.6H578.2l-8.1,41.6h-14.3l10.3-52.899h52.4
			c1.5,0,3,0,4.6,0.101c1.5,0.1,3,0.299,4.5,0.5c1.4,0.299,2.8,0.799,4,1.5c1.2,0.699,2.3,1.6,3.1,2.799
			c1.3,1.9,2.101,4.101,2.3,6.701c0.2,2.6,0.101,5.1-0.399,7.699l-6.5,33.7L615.801,383.6L615.801,383.6z"/>
		<line fill="none" x1="79.4" y1="142.901" x2="79.4" y2="551.801"/>
		<line fill="none" x1="690.7" y1="551.801" x2="690.7" y2="142.901"/>
		<line fill="none" x1="79.4" y1="551.801" x2="79.4" y2="142.101"/>
		<line fill="none" x1="690.7" y1="142.101" x2="690.7" y2="551.801"/>
		
			<text transform="matrix(0.9848 0 -0.1736 0.9848 137.8906 527.8784)" stroke="#000000" stroke-width="5" stroke-miterlimit="10" font-family="'KohinoorDevanagari-Book'" font-size="48.7405">Clicky bird </text>
	</g>
</g>
</svg>
